<svg width="132" height="117" viewBox="0 0 132 117" fill="none" xmlns="http://www.w3.org/2000/svg">
<rect width="132" height="112" fill="white" fill-opacity="0.01"/>
<g filter="url(#filter0_d)">
<rect x="11" y="8" width="106.046" height="85.3953" rx="3" fill="url(#paint0_linear)"/>
</g>
<path d="M99.7467 17.0697H98.0723V15.3953" stroke="white" stroke-linecap="round" stroke-linejoin="round"/>
<path d="M108.119 19.1627C108.119 16.3881 105.87 14.1394 103.095 14.1394C101.069 14.1394 99.3274 15.3416 98.5332 17.0696" stroke="white" stroke-linecap="round" stroke-linejoin="round"/>
<path d="M106.445 21.2559H108.12V22.9303" stroke="white" stroke-linecap="round" stroke-linejoin="round"/>
<path d="M98.0723 19.1628C98.0723 21.9374 100.321 24.1861 103.096 24.1861C105.122 24.1861 106.864 22.9839 107.658 21.2559" stroke="white" stroke-linecap="round" stroke-linejoin="round"/>
<path fill-rule="evenodd" clip-rule="evenodd" d="M104.212 21.1163H101.98C101.363 21.1163 100.863 20.6168 100.863 20.0001V20.0001C100.863 19.3833 101.363 18.8838 101.98 18.8838H104.212C104.829 18.8838 105.328 19.3833 105.328 20.0001V20.0001C105.328 20.6168 104.829 21.1163 104.212 21.1163Z" stroke="white" stroke-linecap="round" stroke-linejoin="round"/>
<path d="M100.867 19.9073L100.999 18.2379C101.044 17.6569 101.529 17.2092 102.111 17.2092H104.08C104.663 17.2092 105.147 17.6569 105.193 18.2379L105.324 19.9073" stroke="white" stroke-linecap="round" stroke-linejoin="round"/>
<g style="mix-blend-mode:soft-light" filter="url(#filter1_d)">
<path d="M18.25 32.884C18.25 31.7795 19.1454 30.884 20.25 30.884H107.785C108.889 30.884 109.785 31.7795 109.785 32.884V84.698C109.785 85.8025 108.889 86.6979 107.785 86.6979H20.25C19.1454 86.6979 18.25 85.8025 18.25 84.6979V32.884Z" fill="white" fill-opacity="0.85"/>
<path d="M18.5 32.884C18.5 31.9175 19.2835 31.134 20.25 31.134H107.785C108.751 31.134 109.535 31.9175 109.535 32.884V84.698C109.535 85.6644 108.751 86.4479 107.785 86.4479H20.25C19.2835 86.4479 18.5 85.6644 18.5 84.6979V32.884Z" stroke="#E7E7E7" stroke-width="0.5"/>
</g>
<g style="mix-blend-mode:soft-light" opacity="0.6">
<path d="M23.1323 25.8373L20.4824 30.8836H52.5754L50.6268 25.9358C50.4762 25.5535 50.1072 25.3022 49.6963 25.3022H24.0177C23.646 25.3022 23.3051 25.5083 23.1323 25.8373Z" fill="#F7FBFF"/>
</g>
<g style="mix-blend-mode:soft-light">
<path d="M21.2997 58.0851C21.2997 57.0775 22.1165 56.2606 23.1241 56.2606H42.2293C43.2369 56.2606 44.0537 57.0775 44.0537 58.0851V81.2634C44.0537 82.271 43.2369 83.0879 42.2293 83.0879H23.1241C22.1165 83.0879 21.2997 82.271 21.2997 81.2634V58.0851Z" fill="white" fill-opacity="0.15"/>
<path d="M21.2997 58.0851C21.2997 57.0775 22.1165 56.2606 23.1241 56.2606H42.2293C43.2369 56.2606 44.0537 57.0775 44.0537 58.0851V81.2634C44.0537 82.271 43.2369 83.0879 42.2293 83.0879H23.1241C22.1165 83.0879 21.2997 82.271 21.2997 81.2634V58.0851Z" stroke="#E7E7E7" stroke-width="0.521271"/>
</g>
<rect x="29.418" y="27.5352" width="13.9535" height="1.11628" rx="0.558139" fill="#73BA6D"/>
<rect x="21.0391" y="42.0466" width="28.4651" height="2.23256" rx="1.11628" fill="#73BA6D"/>
<rect x="21.0391" y="47.6279" width="18.9767" height="2.23256" rx="1.11628" fill="#73BA6D"/>
<g filter="url(#filter2_d)">
<circle cx="20.5946" cy="16.4836" r="2.34464" fill="white"/>
</g>
<g filter="url(#filter3_d)">
<circle cx="27.6318" cy="16.4833" r="2.34464" fill="white"/>
</g>
<g filter="url(#filter4_d)">
<circle cx="34.663" cy="16.4833" r="2.34464" fill="white"/>
</g>
<g filter="url(#filter5_d)">
<rect x="68.4824" y="35.3489" width="53.0232" height="68.6511" rx="3" fill="white"/>
</g>
<path fill-rule="evenodd" clip-rule="evenodd" d="M33.4481 61.4171C33.9891 61.614 34.2681 62.2123 34.0712 62.7534L31.8885 68.7502C31.6915 69.2913 31.0933 69.5703 30.5522 69.3733L30.3977 69.3171C30.6391 68.6491 30.2943 67.9115 29.6266 67.6684C28.9588 67.4254 28.2206 67.7689 27.9762 68.4357L27.8416 68.3867C27.3006 68.1898 27.0216 67.5916 27.2185 67.0505L29.4012 61.0536C29.5981 60.5126 30.1964 60.2336 30.7374 60.4305L30.8773 60.4814C30.8771 60.4819 30.877 60.4823 30.8768 60.4828C30.6334 61.1514 30.9782 61.8908 31.6469 62.1342C32.3155 62.3775 33.0549 62.0328 33.2983 61.3641C33.2984 61.3637 33.2986 61.3632 33.2987 61.3628L33.4481 61.4171Z" fill="#57B154"/>
<circle cx="33.1282" cy="64.9019" r="2.02468" fill="white"/>
<path d="M32.9445 65.8781V65.2346H32.3535V64.8219H32.9445V64.1785H33.3922V64.8219H33.9832V65.2346H33.3922V65.8781H32.9445Z" fill="#57B154"/>
<path fill-rule="evenodd" clip-rule="evenodd" d="M57.3016 61.4171C57.8426 61.614 58.1216 62.2123 57.9247 62.7534L55.742 68.7502C55.5451 69.2913 54.9468 69.5703 54.4058 69.3733L54.2662 69.3225L54.2672 69.3198C54.5106 68.6512 54.1658 67.9118 53.4971 67.6684C52.8285 67.4251 52.0891 67.7698 51.8457 68.4385L51.8447 68.4412L51.6951 68.3867C51.1541 68.1898 50.8751 67.5916 51.072 67.0505L53.2547 61.0536C53.4517 60.5126 54.0499 60.2336 54.591 60.4305L54.7332 60.4823C54.7332 60.4825 54.7331 60.4826 54.7331 60.4828C54.4897 61.1514 54.8345 61.8908 55.5031 62.1342C56.1718 62.3775 56.9112 62.0328 57.1545 61.3641C57.1546 61.3639 57.1546 61.3638 57.1547 61.3636L57.3016 61.4171Z" fill="#8EC783"/>
<circle cx="56.9817" cy="64.9021" r="2.02468" fill="white"/>
<path d="M56.7981 65.8781V65.2346H56.207V64.8219H56.7981V64.1785H57.2457V64.8219H57.8367V65.2346H57.2457V65.8781H56.7981Z" fill="#57B154"/>
<g filter="url(#filter6_i)">
<path d="M113.694 58.2329H109.601C108.472 58.2329 107.555 59.1497 107.555 60.2794C107.555 61.4091 108.472 62.3259 109.601 62.3259H113.694C114.824 62.3259 115.741 61.4091 115.741 60.2794C115.741 59.1497 114.824 58.2329 113.694 58.2329ZM113.694 61.5073C113.015 61.5073 112.466 60.9589 112.466 60.2794C112.466 59.6 113.015 59.0515 113.694 59.0515C114.374 59.0515 114.922 59.6 114.922 60.2794C114.922 60.9589 114.374 61.5073 113.694 61.5073Z" fill="#73BA6D"/>
</g>
<g filter="url(#filter7_d)">
<circle cx="113.616" cy="60.2789" r="1.71907" fill="white"/>
</g>
<path d="M113.694 75.5347H109.601C108.472 75.5347 107.555 76.4515 107.555 77.5812C107.555 78.7109 108.472 79.6277 109.601 79.6277H113.694C114.824 79.6277 115.741 78.7109 115.741 77.5812C115.741 76.4515 114.824 75.5347 113.694 75.5347Z" fill="#E0EADF"/>
<g filter="url(#filter8_d)">
<circle cx="109.83" cy="77.5809" r="1.71907" fill="white"/>
</g>
<g filter="url(#filter9_i)">
<path d="M113.694 92.8364H109.601C108.472 92.8364 107.555 93.7533 107.555 94.8829C107.555 96.0126 108.472 96.9294 109.601 96.9294H113.694C114.824 96.9294 115.741 96.0126 115.741 94.8829C115.741 93.7533 114.824 92.8364 113.694 92.8364ZM113.694 96.1108C113.015 96.1108 112.466 95.5624 112.466 94.8829C112.466 94.2035 113.015 93.655 113.694 93.655C114.374 93.655 114.922 94.2035 114.922 94.8829C114.922 95.5624 114.374 96.1108 113.694 96.1108Z" fill="#73BA6D"/>
</g>
<g filter="url(#filter10_d)">
<circle cx="113.616" cy="94.8829" r="1.71907" fill="white"/>
</g>
<rect x="74.0723" y="57.6748" width="22.8837" height="1.11628" rx="0.558139" fill="#D2E3D0"/>
<rect x="74.0723" y="74.9763" width="22.8837" height="1.11628" rx="0.558139" fill="#D2E3D0"/>
<rect x="74.0723" y="92.2793" width="22.8837" height="1.11628" rx="0.558139" fill="#D2E3D0"/>
<rect x="74.0723" y="61.0232" width="13.9535" height="1.11628" rx="0.558139" fill="#D2E3D0"/>
<rect x="74.0723" y="78.3259" width="13.9535" height="1.11628" rx="0.558139" fill="#D2E3D0"/>
<rect x="74.0723" y="95.6282" width="13.9535" height="1.11628" rx="0.558139" fill="#D2E3D0"/>
<rect x="74.0723" y="69.3962" width="12.2791" height="1.11628" rx="0.558139" fill="#73BA6D"/>
<rect x="74.0723" y="86.6978" width="7.25581" height="1.11628" rx="0.558139" fill="#73BA6D"/>
<rect x="23.9297" y="72.8743" width="16.7638" height="0.609592" rx="0.304796" fill="white"/>
<rect x="23.9297" y="75.7698" width="12.8014" height="0.609592" rx="0.304796" fill="white"/>
<rect x="23.9297" y="78.6936" width="2.90941" height="0.581883" rx="0.290942" fill="#A2FEBD"/>
<rect x="48.9512" y="75.7842" width="16.7638" height="0.609592" rx="0.304796" fill="white"/>
<rect x="48.9512" y="72.8743" width="9.89201" height="0.581883" rx="0.290942" fill="white"/>
<rect x="48.9512" y="78.6936" width="2.90941" height="0.581883" rx="0.290942" fill="#A2FEBD"/>
<path d="M77.3581 43.0645V43.8742H76.0254V48.0659H75.0222V43.8742H73.6895V43.0645H77.3581Z" fill="#A5C5B1"/>
<path d="M80.6696 48.0659L79.5661 46.1169H79.0932V48.0659H78.09V43.0645H79.9674C80.3543 43.0645 80.6839 43.1338 80.9562 43.2723C81.2285 43.406 81.4315 43.5899 81.5652 43.824C81.7038 44.0533 81.773 44.3113 81.773 44.5979C81.773 44.9275 81.6775 45.226 81.4864 45.4935C81.2953 45.7563 81.0111 45.9378 80.6337 46.0381L81.8303 48.0659H80.6696ZM79.0932 45.3646H79.9315C80.2038 45.3646 80.4068 45.3001 80.5406 45.1711C80.6743 45.0373 80.7412 44.8534 80.7412 44.6194C80.7412 44.3901 80.6743 44.2133 80.5406 44.0891C80.4068 43.9602 80.2038 43.8957 79.9315 43.8957H79.0932V45.3646Z" fill="#A5C5B1"/>
<path d="M83.6835 43.0645V48.0659H82.6803V43.0645H83.6835Z" fill="#A5C5B1"/>
<path d="M88.1569 44.5692C88.0423 44.359 87.8847 44.199 87.684 44.0891C87.4834 43.9793 87.2493 43.9243 86.9818 43.9243C86.6857 43.9243 86.4229 43.9912 86.1936 44.125C85.9643 44.2587 85.7852 44.4498 85.6562 44.6982C85.5273 44.9466 85.4628 45.2332 85.4628 45.558C85.4628 45.8924 85.5273 46.1838 85.6562 46.4322C85.79 46.6806 85.9739 46.8717 86.208 47.0054C86.442 47.1392 86.7143 47.2061 87.0248 47.2061C87.407 47.2061 87.7199 47.1057 87.9635 46.9051C88.2071 46.6997 88.3671 46.4155 88.4436 46.0524H86.7239V45.2857H89.4324V46.1599C89.3655 46.5086 89.2222 46.8311 89.0025 47.1272C88.7827 47.4234 88.4985 47.6622 88.1498 47.8438C87.8058 48.0205 87.4189 48.1089 86.989 48.1089C86.5065 48.1089 86.0694 48.0014 85.6777 47.7864C85.2908 47.5667 84.9851 47.2634 84.7606 46.8764C84.5408 46.4895 84.431 46.05 84.431 45.558C84.431 45.066 84.5408 44.6265 84.7606 44.2396C84.9851 43.8479 85.2908 43.5446 85.6777 43.3296C86.0694 43.1099 86.5041 43 86.9818 43C87.5455 43 88.0351 43.1385 88.4507 43.4156C88.8663 43.6879 89.1529 44.0724 89.3106 44.5692H88.1569Z" fill="#A5C5B1"/>
<path d="M93.6569 44.5692C93.5423 44.359 93.3846 44.199 93.184 44.0891C92.9834 43.9793 92.7493 43.9243 92.4818 43.9243C92.1856 43.9243 91.9229 43.9912 91.6936 44.125C91.4643 44.2587 91.2852 44.4498 91.1562 44.6982C91.0272 44.9466 90.9627 45.2332 90.9627 45.558C90.9627 45.8924 91.0272 46.1838 91.1562 46.4322C91.2899 46.6806 91.4739 46.8717 91.7079 47.0054C91.942 47.1392 92.2143 47.2061 92.5248 47.2061C92.9069 47.2061 93.2198 47.1057 93.4634 46.9051C93.7071 46.6997 93.8671 46.4155 93.9435 46.0524H92.2238V45.2857H94.9323V46.1599C94.8655 46.5086 94.7221 46.8311 94.5024 47.1272C94.2827 47.4234 93.9984 47.6622 93.6497 47.8438C93.3058 48.0205 92.9189 48.1089 92.489 48.1089C92.0065 48.1089 91.5694 48.0014 91.1777 47.7864C90.7908 47.5667 90.485 47.2634 90.2605 46.8764C90.0408 46.4895 89.9309 46.05 89.9309 45.558C89.9309 45.066 90.0408 44.6265 90.2605 44.2396C90.485 43.8479 90.7908 43.5446 91.1777 43.3296C91.5694 43.1099 92.0041 43 92.4818 43C93.0455 43 93.5351 43.1385 93.9507 43.4156C94.3663 43.6879 94.6529 44.0724 94.8105 44.5692H93.6569Z" fill="#A5C5B1"/>
<path d="M96.6777 43.8742V45.1281H98.3615V45.9235H96.6777V47.249H98.5765V48.0659H95.6745V43.0573H98.5765V43.8742H96.6777Z" fill="#A5C5B1"/>
<path d="M102.068 48.0659L100.964 46.1169H100.491V48.0659H99.4881V43.0645H101.365C101.752 43.0645 102.082 43.1338 102.354 43.2723C102.627 43.406 102.83 43.5899 102.963 43.824C103.102 44.0533 103.171 44.3113 103.171 44.5979C103.171 44.9275 103.076 45.226 102.884 45.4935C102.693 45.7563 102.409 45.9378 102.032 46.0381L103.228 48.0659H102.068ZM100.491 45.3646H101.33C101.602 45.3646 101.805 45.3001 101.939 45.1711C102.072 45.0373 102.139 44.8534 102.139 44.6194C102.139 44.3901 102.072 44.2133 101.939 44.0891C101.805 43.9602 101.602 43.8957 101.33 43.8957H100.491V45.3646Z" fill="#A5C5B1"/>
<defs>
<filter id="filter0_d" x="3" y="8" width="122.046" height="108.395" filterUnits="userSpaceOnUse" color-interpolation-filters="sRGB">
<feFlood flood-opacity="0" result="BackgroundImageFix"/>
<feColorMatrix in="SourceAlpha" type="matrix" values="0 0 0 0 0 0 0 0 0 0 0 0 0 0 0 0 0 0 127 0"/>
<feMorphology radius="10" operator="erode" in="SourceAlpha" result="effect1_dropShadow"/>
<feOffset dy="15"/>
<feGaussianBlur stdDeviation="9"/>
<feColorMatrix type="matrix" values="0 0 0 0 0 0 0 0 0 0 0 0 0 0 0 0 0 0 0.15 0"/>
<feBlend mode="normal" in2="BackgroundImageFix" result="effect1_dropShadow"/>
<feBlend mode="normal" in="SourceGraphic" in2="effect1_dropShadow" result="shape"/>
</filter>
<filter id="filter1_d" x="17.25" y="30.884" width="93.5348" height="60.8139" filterUnits="userSpaceOnUse" color-interpolation-filters="sRGB">
<feFlood flood-opacity="0" result="BackgroundImageFix"/>
<feColorMatrix in="SourceAlpha" type="matrix" values="0 0 0 0 0 0 0 0 0 0 0 0 0 0 0 0 0 0 127 0"/>
<feMorphology radius="3" operator="erode" in="SourceAlpha" result="effect1_dropShadow"/>
<feOffset dy="4"/>
<feGaussianBlur stdDeviation="2"/>
<feColorMatrix type="matrix" values="0 0 0 0 0 0 0 0 0 0 0 0 0 0 0 0 0 0 0.14 0"/>
<feBlend mode="normal" in2="BackgroundImageFix" result="effect1_dropShadow"/>
<feBlend mode="normal" in="SourceGraphic" in2="effect1_dropShadow" result="shape"/>
</filter>
<filter id="filter2_d" x="14.25" y="12.1389" width="12.6893" height="12.6893" filterUnits="userSpaceOnUse" color-interpolation-filters="sRGB">
<feFlood flood-opacity="0" result="BackgroundImageFix"/>
<feColorMatrix in="SourceAlpha" type="matrix" values="0 0 0 0 0 0 0 0 0 0 0 0 0 0 0 0 0 0 127 0"/>
<feOffset dy="2"/>
<feGaussianBlur stdDeviation="2"/>
<feColorMatrix type="matrix" values="0 0 0 0 0 0 0 0 0 0 0 0 0 0 0 0 0 0 0.1 0"/>
<feBlend mode="normal" in2="BackgroundImageFix" result="effect1_dropShadow"/>
<feBlend mode="normal" in="SourceGraphic" in2="effect1_dropShadow" result="shape"/>
</filter>
<filter id="filter3_d" x="21.2871" y="12.1387" width="12.6893" height="12.6893" filterUnits="userSpaceOnUse" color-interpolation-filters="sRGB">
<feFlood flood-opacity="0" result="BackgroundImageFix"/>
<feColorMatrix in="SourceAlpha" type="matrix" values="0 0 0 0 0 0 0 0 0 0 0 0 0 0 0 0 0 0 127 0"/>
<feOffset dy="2"/>
<feGaussianBlur stdDeviation="2"/>
<feColorMatrix type="matrix" values="0 0 0 0 0 0 0 0 0 0 0 0 0 0 0 0 0 0 0.1 0"/>
<feBlend mode="normal" in2="BackgroundImageFix" result="effect1_dropShadow"/>
<feBlend mode="normal" in="SourceGraphic" in2="effect1_dropShadow" result="shape"/>
</filter>
<filter id="filter4_d" x="28.3184" y="12.1387" width="12.6893" height="12.6893" filterUnits="userSpaceOnUse" color-interpolation-filters="sRGB">
<feFlood flood-opacity="0" result="BackgroundImageFix"/>
<feColorMatrix in="SourceAlpha" type="matrix" values="0 0 0 0 0 0 0 0 0 0 0 0 0 0 0 0 0 0 127 0"/>
<feOffset dy="2"/>
<feGaussianBlur stdDeviation="2"/>
<feColorMatrix type="matrix" values="0 0 0 0 0 0 0 0 0 0 0 0 0 0 0 0 0 0 0.1 0"/>
<feBlend mode="normal" in2="BackgroundImageFix" result="effect1_dropShadow"/>
<feBlend mode="normal" in="SourceGraphic" in2="effect1_dropShadow" result="shape"/>
</filter>
<filter id="filter5_d" x="66.4824" y="35.3489" width="57.0232" height="78.6511" filterUnits="userSpaceOnUse" color-interpolation-filters="sRGB">
<feFlood flood-opacity="0" result="BackgroundImageFix"/>
<feColorMatrix in="SourceAlpha" type="matrix" values="0 0 0 0 0 0 0 0 0 0 0 0 0 0 0 0 0 0 127 0"/>
<feMorphology radius="6" operator="erode" in="SourceAlpha" result="effect1_dropShadow"/>
<feOffset dy="8"/>
<feGaussianBlur stdDeviation="4"/>
<feColorMatrix type="matrix" values="0 0 0 0 0 0 0 0 0 0 0 0 0 0 0 0 0 0 0.18 0"/>
<feBlend mode="normal" in2="BackgroundImageFix" result="effect1_dropShadow"/>
<feBlend mode="normal" in="SourceGraphic" in2="effect1_dropShadow" result="shape"/>
</filter>
<filter id="filter6_i" x="107.555" y="58.2329" width="8.18604" height="5.09302" filterUnits="userSpaceOnUse" color-interpolation-filters="sRGB">
<feFlood flood-opacity="0" result="BackgroundImageFix"/>
<feBlend mode="normal" in="SourceGraphic" in2="BackgroundImageFix" result="shape"/>
<feColorMatrix in="SourceAlpha" type="matrix" values="0 0 0 0 0 0 0 0 0 0 0 0 0 0 0 0 0 0 127 0" result="hardAlpha"/>
<feOffset dy="1"/>
<feGaussianBlur stdDeviation="2"/>
<feComposite in2="hardAlpha" operator="arithmetic" k2="-1" k3="1"/>
<feColorMatrix type="matrix" values="0 0 0 0 0.45184 0 0 0 0 0.758333 0 0 0 0 0.647996 0 0 0 1 0"/>
<feBlend mode="normal" in2="shape" result="effect1_innerShadow"/>
</filter>
<filter id="filter7_d" x="107.896" y="56.5598" width="11.4381" height="11.4381" filterUnits="userSpaceOnUse" color-interpolation-filters="sRGB">
<feFlood flood-opacity="0" result="BackgroundImageFix"/>
<feColorMatrix in="SourceAlpha" type="matrix" values="0 0 0 0 0 0 0 0 0 0 0 0 0 0 0 0 0 0 127 0"/>
<feOffset dy="2"/>
<feGaussianBlur stdDeviation="2"/>
<feColorMatrix type="matrix" values="0 0 0 0 0 0 0 0 0 0 0 0 0 0 0 0 0 0 0.1 0"/>
<feBlend mode="normal" in2="BackgroundImageFix" result="effect1_dropShadow"/>
<feBlend mode="normal" in="SourceGraphic" in2="effect1_dropShadow" result="shape"/>
</filter>
<filter id="filter8_d" x="104.111" y="73.8618" width="11.4381" height="11.4381" filterUnits="userSpaceOnUse" color-interpolation-filters="sRGB">
<feFlood flood-opacity="0" result="BackgroundImageFix"/>
<feColorMatrix in="SourceAlpha" type="matrix" values="0 0 0 0 0 0 0 0 0 0 0 0 0 0 0 0 0 0 127 0"/>
<feOffset dy="2"/>
<feGaussianBlur stdDeviation="2"/>
<feColorMatrix type="matrix" values="0 0 0 0 0 0 0 0 0 0 0 0 0 0 0 0 0 0 0.1 0"/>
<feBlend mode="normal" in2="BackgroundImageFix" result="effect1_dropShadow"/>
<feBlend mode="normal" in="SourceGraphic" in2="effect1_dropShadow" result="shape"/>
</filter>
<filter id="filter9_i" x="107.555" y="92.8364" width="8.18604" height="5.09302" filterUnits="userSpaceOnUse" color-interpolation-filters="sRGB">
<feFlood flood-opacity="0" result="BackgroundImageFix"/>
<feBlend mode="normal" in="SourceGraphic" in2="BackgroundImageFix" result="shape"/>
<feColorMatrix in="SourceAlpha" type="matrix" values="0 0 0 0 0 0 0 0 0 0 0 0 0 0 0 0 0 0 127 0" result="hardAlpha"/>
<feOffset dy="1"/>
<feGaussianBlur stdDeviation="2"/>
<feComposite in2="hardAlpha" operator="arithmetic" k2="-1" k3="1"/>
<feColorMatrix type="matrix" values="0 0 0 0 0.45184 0 0 0 0 0.758333 0 0 0 0 0.647996 0 0 0 1 0"/>
<feBlend mode="normal" in2="shape" result="effect1_innerShadow"/>
</filter>
<filter id="filter10_d" x="107.896" y="91.1638" width="11.4381" height="11.4381" filterUnits="userSpaceOnUse" color-interpolation-filters="sRGB">
<feFlood flood-opacity="0" result="BackgroundImageFix"/>
<feColorMatrix in="SourceAlpha" type="matrix" values="0 0 0 0 0 0 0 0 0 0 0 0 0 0 0 0 0 0 127 0"/>
<feOffset dy="2"/>
<feGaussianBlur stdDeviation="2"/>
<feColorMatrix type="matrix" values="0 0 0 0 0 0 0 0 0 0 0 0 0 0 0 0 0 0 0.1 0"/>
<feBlend mode="normal" in2="BackgroundImageFix" result="effect1_dropShadow"/>
<feBlend mode="normal" in="SourceGraphic" in2="effect1_dropShadow" result="shape"/>
</filter>
<linearGradient id="paint0_linear" x1="64.0232" y1="-12.6512" x2="64.0232" y2="100.093" gradientUnits="userSpaceOnUse">
<stop stop-color="#CBEABA"/>
<stop offset="1" stop-color="#4CAB4A"/>
</linearGradient>
</defs>
</svg>
