<svg width="137" height="125" viewBox="0 0 137 125" fill="none" xmlns="http://www.w3.org/2000/svg">
<rect width="132" height="112" fill="white" fill-opacity="0.01"/>
<g filter="url(#filter0_d)">
<rect x="17.0488" y="8" width="111.22" height="96" rx="3" fill="url(#paint0_linear)"/>
</g>
<path fill-rule="evenodd" clip-rule="evenodd" d="M113.635 15.1584V15.1584C115.825 15.1584 117.599 16.9327 117.599 19.122V19.122C117.599 21.3112 115.825 23.0855 113.635 23.0855V23.0855C111.446 23.0855 109.672 21.3112 109.672 19.122V19.122C109.672 16.9327 111.446 15.1584 113.635 15.1584Z" stroke="white" stroke-width="0.9" stroke-linecap="round" stroke-linejoin="round"/>
<path d="M113.634 19.3421V17.1405" stroke="white" stroke-width="0.9" stroke-linecap="round" stroke-linejoin="round"/>
<path d="M113.634 20.9056C113.585 20.9056 113.546 20.9448 113.547 20.9934C113.547 21.042 113.586 21.0812 113.634 21.0812C113.683 21.0812 113.722 21.042 113.722 20.9934C113.722 20.9454 113.683 20.9056 113.634 20.9056" stroke="white" stroke-width="0.9" stroke-linecap="round" stroke-linejoin="round"/>
<path d="M118.508 15.4675C120.134 17.6287 120.134 20.6147 118.508 22.7758" stroke="white" stroke-width="0.9" stroke-linecap="round" stroke-linejoin="round"/>
<path d="M108.757 22.7764C107.131 20.6153 107.131 17.6293 108.757 15.4681" stroke="white" stroke-width="0.9" stroke-linecap="round" stroke-linejoin="round"/>
<g style="mix-blend-mode:soft-light" filter="url(#filter1_d)">
<path d="M24.6582 34C24.6582 32.8954 25.5536 32 26.6582 32H118.658C119.763 32 120.658 32.8954 120.658 34V93.8049C120.658 94.9094 119.763 95.8049 118.658 95.8049H26.6582C25.5536 95.8049 24.6582 94.9094 24.6582 93.8049V34Z" fill="white" fill-opacity="0.85"/>
<path d="M24.9082 34C24.9082 33.0335 25.6917 32.25 26.6582 32.25H118.658C119.625 32.25 120.408 33.0335 120.408 34V93.8049C120.408 94.7714 119.625 95.5549 118.658 95.5549H26.6582C25.6917 95.5549 24.9082 94.7714 24.9082 93.8049V34Z" stroke="#E7E7E7" stroke-width="0.5"/>
</g>
<g style="mix-blend-mode:soft-light" opacity="0.6">
<path d="M28.364 28.2867L26.4141 32H60.0726L58.7653 28.6806C58.1631 27.1515 56.6869 26.1464 55.0435 26.1464H31.9054C30.4189 26.1464 29.0551 26.9707 28.364 28.2867Z" fill="#FFDEDE"/>
</g>
<rect x="35.7812" y="28.4878" width="14.6341" height="1.17073" rx="0.585366" fill="#FF8383"/>
<g filter="url(#filter2_d)">
<circle cx="27.1172" cy="16.8981" r="2.45902" fill="white"/>
</g>
<g filter="url(#filter3_d)">
<circle cx="34.4942" cy="16.8982" r="2.45902" fill="white"/>
</g>
<g filter="url(#filter4_d)">
<circle cx="41.8731" cy="16.8982" r="2.45902" fill="white"/>
</g>
<g filter="url(#filter5_d)">
<rect x="3" y="53.0731" width="80.7805" height="21.0732" rx="3" fill="white"/>
</g>
<rect x="39.291" y="39.6097" width="29.8537" height="2.34146" rx="1.17073" fill="#FF8383"/>
<rect x="19.3887" y="59.5122" width="29.8537" height="2.34146" rx="1.17073" fill="#FDAFAF"/>
<rect x="39.291" y="79.4146" width="19.9024" height="2.34146" rx="1.17073" fill="#FF8383"/>
<rect x="28.1699" y="39.6097" width="7.60976" height="2.34146" rx="1.17073" fill="#FFF2C7"/>
<rect x="28.1699" y="79.4146" width="7.60976" height="2.34146" rx="1.17073" fill="#FFE0E0"/>
<rect x="7.09766" y="59.5122" width="7.60976" height="2.34146" rx="1.17073" fill="#62E47F"/>
<rect x="39.291" y="45.4634" width="12.2927" height="2.34146" rx="1.17073" fill="#FF8383"/>
<rect x="19.3887" y="65.3658" width="12.2927" height="2.34146" rx="1.17073" fill="#FDAFAF"/>
<rect x="39.291" y="85.2682" width="29.8537" height="2.34146" rx="1.17073" fill="#FF8383"/>
<path d="M54.2363 66.1035C54.2363 65.4284 54.3573 64.8996 54.5993 64.5171C54.8451 64.1347 55.251 63.9435 55.8168 63.9435C56.3827 63.9435 56.7866 64.1347 57.0285 64.5171C57.2744 64.8996 57.3973 65.4284 57.3973 66.1035C57.3973 66.7825 57.2744 67.3152 57.0285 67.7015C56.7866 68.0879 56.3827 68.281 55.8168 68.281C55.251 68.281 54.8451 68.0879 54.5993 67.7015C54.3573 67.3152 54.2363 66.7825 54.2363 66.1035ZM56.5895 66.1035C56.5895 65.8147 56.57 65.5727 56.531 65.3776C56.4958 65.1786 56.4217 65.0167 56.3085 64.8918C56.1993 64.7669 56.0354 64.7045 55.8168 64.7045C55.5983 64.7045 55.4324 64.7669 55.3193 64.8918C55.21 65.0167 55.1358 65.1786 55.0968 65.3776C55.0617 65.5727 55.0441 65.8147 55.0441 66.1035C55.0441 66.4001 55.0617 66.6498 55.0968 66.8528C55.1319 67.0518 55.2061 67.2137 55.3193 67.3386C55.4324 67.4596 55.5983 67.5201 55.8168 67.5201C56.0354 67.5201 56.2012 67.4596 56.3144 67.3386C56.4275 67.2137 56.5017 67.0518 56.5368 66.8528C56.5719 66.6498 56.5895 66.4001 56.5895 66.1035Z" fill="#FF8383"/>
<path d="M60.8889 64.7337H58.9923V65.7347C59.0743 65.6332 59.1914 65.5513 59.3436 65.4888C59.4957 65.4225 59.6577 65.3893 59.8294 65.3893C60.1416 65.3893 60.3972 65.4576 60.5962 65.5942C60.7953 65.7308 60.9397 65.9064 61.0294 66.121C61.1192 66.3318 61.164 66.5581 61.164 66.8001C61.164 67.2488 61.0353 67.6098 60.7777 67.883C60.524 68.1562 60.1611 68.2928 59.6889 68.2928C59.244 68.2928 58.8889 68.1815 58.6236 67.9591C58.3582 67.7367 58.2079 67.4459 58.1728 67.0869H58.9689C59.004 67.243 59.0821 67.3679 59.2031 67.4615C59.3279 67.5552 59.486 67.602 59.6772 67.602C59.9075 67.602 60.0811 67.5298 60.1982 67.3854C60.3153 67.241 60.3738 67.0498 60.3738 66.8118C60.3738 66.5698 60.3133 66.3864 60.1923 66.2615C60.0753 66.1327 59.9016 66.0684 59.6714 66.0684C59.5075 66.0684 59.3709 66.1093 59.2616 66.1913C59.1523 66.2732 59.0743 66.3825 59.0275 66.5191H58.2431V64.0137H60.8889V64.7337Z" fill="#FF8383"/>
<path d="M62.2444 68.3337C62.0961 68.3337 61.9731 68.2888 61.8756 68.1991C61.7819 68.1054 61.7351 67.9903 61.7351 67.8537C61.7351 67.7171 61.7819 67.604 61.8756 67.5142C61.9731 67.4206 62.0961 67.3737 62.2444 67.3737C62.3888 67.3737 62.5078 67.4206 62.6014 67.5142C62.6951 67.604 62.7419 67.7171 62.7419 67.8537C62.7419 67.9903 62.6951 68.1054 62.6014 68.1991C62.5078 68.2888 62.3888 68.3337 62.2444 68.3337ZM62.2444 65.9103C62.0961 65.9103 61.9731 65.8654 61.8756 65.7757C61.7819 65.682 61.7351 65.5669 61.7351 65.4303C61.7351 65.2937 61.7819 65.1806 61.8756 65.0908C61.9731 64.9971 62.0961 64.9503 62.2444 64.9503C62.3888 64.9503 62.5078 64.9971 62.6014 65.0908C62.6951 65.1806 62.7419 65.2937 62.7419 65.4303C62.7419 65.5669 62.6951 65.682 62.6014 65.7757C62.5078 65.8654 62.3888 65.9103 62.2444 65.9103Z" fill="#FF8383"/>
<path d="M63.3255 66.1035C63.3255 65.4284 63.4465 64.8996 63.6884 64.5171C63.9343 64.1347 64.3401 63.9435 64.906 63.9435C65.4718 63.9435 65.8757 64.1347 66.1177 64.5171C66.3636 64.8996 66.4865 65.4284 66.4865 66.1035C66.4865 66.7825 66.3636 67.3152 66.1177 67.7015C65.8757 68.0879 65.4718 68.281 64.906 68.281C64.3401 68.281 63.9343 68.0879 63.6884 67.7015C63.4465 67.3152 63.3255 66.7825 63.3255 66.1035ZM65.6787 66.1035C65.6787 65.8147 65.6592 65.5727 65.6201 65.3776C65.585 65.1786 65.5109 65.0167 65.3977 64.8918C65.2884 64.7669 65.1245 64.7045 64.906 64.7045C64.6875 64.7045 64.5216 64.7669 64.4084 64.8918C64.2992 65.0167 64.225 65.1786 64.186 65.3776C64.1509 65.5727 64.1333 65.8147 64.1333 66.1035C64.1333 66.4001 64.1509 66.6498 64.186 66.8528C64.2211 67.0518 64.2953 67.2137 64.4084 67.3386C64.5216 67.4596 64.6875 67.5201 64.906 67.5201C65.1245 67.5201 65.2904 67.4596 65.4036 67.3386C65.5167 67.2137 65.5909 67.0518 65.626 66.8528C65.6611 66.6498 65.6787 66.4001 65.6787 66.1035Z" fill="#FF8383"/>
<path d="M67.1098 66.1035C67.1098 65.4284 67.2308 64.8996 67.4727 64.5171C67.7186 64.1347 68.1244 63.9435 68.6903 63.9435C69.2561 63.9435 69.66 64.1347 69.902 64.5171C70.1479 64.8996 70.2708 65.4284 70.2708 66.1035C70.2708 66.7825 70.1479 67.3152 69.902 67.7015C69.66 68.0879 69.2561 68.281 68.6903 68.281C68.1244 68.281 67.7186 68.0879 67.4727 67.7015C67.2308 67.3152 67.1098 66.7825 67.1098 66.1035ZM69.463 66.1035C69.463 65.8147 69.4435 65.5727 69.4044 65.3776C69.3693 65.1786 69.2952 65.0167 69.182 64.8918C69.0727 64.7669 68.9088 64.7045 68.6903 64.7045C68.4718 64.7045 68.3059 64.7669 68.1927 64.8918C68.0835 65.0167 68.0093 65.1786 67.9703 65.3776C67.9352 65.5727 67.9176 65.8147 67.9176 66.1035C67.9176 66.4001 67.9352 66.6498 67.9703 66.8528C68.0054 67.0518 68.0796 67.2137 68.1927 67.3386C68.3059 67.4596 68.4718 67.5201 68.6903 67.5201C68.9088 67.5201 69.0747 67.4596 69.1879 67.3386C69.301 67.2137 69.3752 67.0518 69.4103 66.8528C69.4454 66.6498 69.463 66.4001 69.463 66.1035Z" fill="#FF8383"/>
<path d="M75.3621 65.4713C75.3621 65.6898 75.3094 65.8947 75.204 66.0859C75.1026 66.2771 74.9406 66.4313 74.7182 66.5484C74.4997 66.6654 74.2226 66.724 73.887 66.724H73.2021V68.2928H72.3826V64.2069H73.887C74.2031 64.2069 74.4723 64.2615 74.6948 64.3708C74.9172 64.4801 75.0831 64.6303 75.1923 64.8215C75.3055 65.0127 75.3621 65.2293 75.3621 65.4713ZM73.8518 66.0625C74.0782 66.0625 74.246 66.0118 74.3553 65.9103C74.4645 65.8049 74.5192 65.6586 74.5192 65.4713C74.5192 65.0732 74.2967 64.8742 73.8518 64.8742H73.2021V66.0625H73.8518Z" fill="#FF8383"/>
<path d="M80.3986 64.2069V68.2928H79.5791V65.6352L78.4844 68.2928H77.8639L76.7634 65.6352V68.2928H75.9439V64.2069H76.8747L78.1742 67.2449L79.4737 64.2069H80.3986Z" fill="#FF8383"/>
<path d="M65.9196 60.2935H65.1059L64.9713 60.6828H64.541L65.2756 58.637H65.7527L66.4874 60.6828H66.0542L65.9196 60.2935ZM65.8083 59.9657L65.5127 59.1111L65.2171 59.9657H65.8083Z" fill="#666666"/>
<path d="M67.1717 60.3579H67.8449V60.6828H66.762V58.6399H67.1717V60.3579Z" fill="#666666"/>
<path d="M68.5151 58.9706V59.4828H69.2029V59.8077H68.5151V60.3492H69.2907V60.6828H68.1053V58.637H69.2907V58.9706H68.5151Z" fill="#666666"/>
<path d="M70.7167 60.6828L70.266 59.8867H70.0728V60.6828H69.6631V58.6399H70.4299C70.5879 58.6399 70.7226 58.6682 70.8338 58.7248C70.945 58.7794 71.0279 58.8545 71.0826 58.9501C71.1392 59.0438 71.1674 59.1492 71.1674 59.2662C71.1674 59.4009 71.1284 59.5228 71.0504 59.6321C70.9723 59.7394 70.8562 59.8135 70.7021 59.8545L71.1909 60.6828H70.7167ZM70.0728 59.5794H70.4153C70.5265 59.5794 70.6094 59.5531 70.664 59.5004C70.7187 59.4457 70.746 59.3706 70.746 59.275C70.746 59.1814 70.7187 59.1092 70.664 59.0584C70.6094 59.0057 70.5265 58.9794 70.4153 58.9794H70.0728V59.5794Z" fill="#666666"/>
<path d="M72.9283 58.6399V58.9706H72.3839V60.6828H71.9742V58.9706H71.4298V58.6399H72.9283Z" fill="#666666"/>
<path d="M75.3149 58.6399V58.9706H74.7705V60.6828H74.3608V58.9706H73.8164V58.6399H75.3149Z" fill="#666666"/>
<path d="M76.0237 58.6399V60.6828H75.6139V58.6399H76.0237Z" fill="#666666"/>
<path d="M78.6558 58.6399V60.6828H78.2461V59.354L77.6987 60.6828H77.3885L76.8382 59.354V60.6828H76.4285V58.6399H76.8939L77.5436 60.1589L78.1934 58.6399H78.6558Z" fill="#666666"/>
<path d="M79.4707 58.9706V59.4828H80.1585V59.8077H79.4707V60.3492H80.2463V60.6828H79.0609V58.637H80.2463V58.9706H79.4707Z" fill="#666666"/>
<g style="mix-blend-mode:soft-light">
<path d="M85.7871 34C85.7871 33.0335 86.5706 32.25 87.5371 32.25H118.659C119.626 32.25 120.409 33.0335 120.409 34V93.8049C120.409 94.7714 119.626 95.5549 118.659 95.5549H87.5371C86.5706 95.5549 85.7871 94.7714 85.7871 93.8049V34Z" fill="white" fill-opacity="0.15"/>
<path d="M85.7871 34C85.7871 33.0335 86.5706 32.25 87.5371 32.25H118.659C119.626 32.25 120.409 33.0335 120.409 34V93.8049C120.409 94.7714 119.626 95.5549 118.659 95.5549H87.5371C86.5706 95.5549 85.7871 94.7714 85.7871 93.8049V34Z" stroke="#E7E7E7" stroke-width="0.5"/>
</g>
<rect x="90" y="81" width="25" height="8" rx="1" fill="#FF8383"/>
<path d="M96 85.2539C96 85.0127 96.0539 84.7973 96.1616 84.6076C96.2716 84.4156 96.4203 84.2669 96.6076 84.1616C96.7973 84.0539 97.0092 84 97.2433 84C97.5173 84 97.7573 84.0702 97.9633 84.2107C98.1694 84.3512 98.3134 84.5456 98.3953 84.7938H97.8299C97.7737 84.6767 97.694 84.5889 97.591 84.5303C97.4903 84.4718 97.3733 84.4425 97.2398 84.4425C97.097 84.4425 96.9694 84.4765 96.857 84.5444C96.7469 84.61 96.6603 84.7036 96.5971 84.8254C96.5362 84.9471 96.5058 85.09 96.5058 85.2539C96.5058 85.4154 96.5362 85.5582 96.5971 85.6823C96.6603 85.8041 96.7469 85.8989 96.857 85.9668C96.9694 86.0324 97.097 86.0652 97.2398 86.0652C97.3733 86.0652 97.4903 86.0359 97.591 85.9774C97.694 85.9165 97.7737 85.8275 97.8299 85.7104H98.3953C98.3134 85.961 98.1694 86.1565 97.9633 86.297C97.7596 86.4351 97.5196 86.5042 97.2433 86.5042C97.0092 86.5042 96.7973 86.4515 96.6076 86.3461C96.4203 86.2384 96.2716 86.0898 96.1616 85.9001C96.0539 85.7104 96 85.495 96 85.2539Z" fill="white"/>
<path d="M100.08 86.4831L99.5388 85.5278H99.307V86.4831H98.8153V84.0316H99.7355C99.9252 84.0316 100.087 84.0656 100.22 84.1335C100.354 84.199 100.453 84.2892 100.519 84.4039C100.587 84.5163 100.621 84.6427 100.621 84.7832C100.621 84.9448 100.574 85.0911 100.48 85.2222C100.386 85.351 100.247 85.44 100.062 85.4892L100.649 86.4831H100.08ZM99.307 85.159H99.7179C99.8514 85.159 99.9509 85.1274 100.016 85.0642C100.082 84.9986 100.115 84.9085 100.115 84.7938C100.115 84.6814 100.082 84.5947 100.016 84.5339C99.9509 84.4706 99.8514 84.439 99.7179 84.439H99.307V85.159Z" fill="white"/>
<path d="M101.557 84.4285V85.0431H102.382V85.433H101.557V86.0827H102.488V86.4831H101.065V84.0281H102.488V84.4285H101.557Z" fill="white"/>
<path d="M104.438 86.016H103.461L103.3 86.4831H102.784L103.665 84.0281H104.238L105.119 86.4831H104.599L104.438 86.016ZM104.304 85.6226L103.95 84.5971L103.595 85.6226H104.304Z" fill="white"/>
<path d="M107.117 84.0316V84.4285H106.464V86.4831H105.972V84.4285H105.319V84.0316H107.117Z" fill="white"/>
<path d="M107.967 84.4285V85.0431H108.793V85.433H107.967V86.0827H108.898V86.4831H107.476V84.0281H108.898V84.4285H107.967Z" fill="white"/>
<path d="M93.6731 52.0427V55.0248H93.075V53.0852L92.2761 55.0248H91.8232L91.02 53.0852V55.0248H90.4219V52.0427H91.1012L92.0496 54.2601L92.9981 52.0427H93.6731Z" fill="#FF8383"/>
<path d="M95.6487 55.0547C95.3696 55.0547 95.1132 54.9892 94.8797 54.8582C94.6461 54.7272 94.461 54.5463 94.3243 54.3156C94.1876 54.082 94.1192 53.8186 94.1192 53.5252C94.1192 53.2347 94.1876 52.9741 94.3243 52.7434C94.461 52.5098 94.6461 52.3275 94.8797 52.1965C95.1132 52.0655 95.3696 52 95.6487 52C95.9307 52 96.187 52.0655 96.4177 52.1965C96.6513 52.3275 96.835 52.5098 96.9688 52.7434C97.1056 52.9741 97.1739 53.2347 97.1739 53.5252C97.1739 53.8186 97.1056 54.082 96.9688 54.3156C96.835 54.5463 96.6513 54.7272 96.4177 54.8582C96.1842 54.9892 95.9278 55.0547 95.6487 55.0547ZM95.6487 54.5207C95.8281 54.5207 95.9862 54.4808 96.1229 54.401C96.2596 54.3184 96.3664 54.2017 96.4433 54.0507C96.5203 53.8998 96.5587 53.7246 96.5587 53.5252C96.5587 53.3258 96.5203 53.1521 96.4433 53.004C96.3664 52.853 96.2596 52.7377 96.1229 52.6579C95.9862 52.5782 95.8281 52.5383 95.6487 52.5383C95.4693 52.5383 95.3098 52.5782 95.1702 52.6579C95.0335 52.7377 94.9267 52.853 94.8498 53.004C94.7729 53.1521 94.7344 53.3258 94.7344 53.5252C94.7344 53.7246 94.7729 53.8998 94.8498 54.0507C94.9267 54.2017 95.0335 54.3184 95.1702 54.401C95.3098 54.4808 95.4693 54.5207 95.6487 54.5207Z" fill="#FF8383"/>
<path d="M100.169 55.0248H99.5714L98.217 52.9784V55.0248H97.6189V52.0385H98.217L99.5714 54.0892V52.0385H100.169V55.0248Z" fill="#FF8383"/>
<path d="M101.359 52.0427V55.0248H100.761V52.0427H101.359Z" fill="#FF8383"/>
<path d="M103.979 52.0427V52.5255H103.184V55.0248H102.586V52.5255H101.792V52.0427H103.979Z" fill="#FF8383"/>
<path d="M105.8 55.0547C105.521 55.0547 105.264 54.9892 105.031 54.8582C104.797 54.7272 104.612 54.5463 104.475 54.3156C104.339 54.082 104.27 53.8186 104.27 53.5252C104.27 53.2347 104.339 52.9741 104.475 52.7434C104.612 52.5098 104.797 52.3275 105.031 52.1965C105.264 52.0655 105.521 52 105.8 52C106.082 52 106.338 52.0655 106.569 52.1965C106.802 52.3275 106.986 52.5098 107.12 52.7434C107.257 52.9741 107.325 53.2347 107.325 53.5252C107.325 53.8186 107.257 54.082 107.12 54.3156C106.986 54.5463 106.802 54.7272 106.569 54.8582C106.335 54.9892 106.079 55.0547 105.8 55.0547ZM105.8 54.5207C105.979 54.5207 106.137 54.4808 106.274 54.401C106.411 54.3184 106.517 54.2017 106.594 54.0507C106.671 53.8998 106.71 53.7246 106.71 53.5252C106.71 53.3258 106.671 53.1521 106.594 53.004C106.517 52.853 106.411 52.7377 106.274 52.6579C106.137 52.5782 105.979 52.5383 105.8 52.5383C105.62 52.5383 105.461 52.5782 105.321 52.6579C105.184 52.7377 105.078 52.853 105.001 53.004C104.924 53.1521 104.885 53.3258 104.885 53.5252C104.885 53.7246 104.924 53.8998 105.001 54.0507C105.078 54.2017 105.184 54.3184 105.321 54.401C105.461 54.4808 105.62 54.5207 105.8 54.5207Z" fill="#FF8383"/>
<path d="M109.308 55.0248L108.65 53.8627H108.368V55.0248H107.77V52.0427H108.889C109.12 52.0427 109.316 52.084 109.479 52.1666C109.641 52.2464 109.762 52.356 109.842 52.4956C109.925 52.6323 109.966 52.7861 109.966 52.957C109.966 53.1535 109.909 53.3315 109.795 53.491C109.681 53.6477 109.512 53.7559 109.287 53.8157L110 55.0248H109.308ZM108.368 53.4141H108.868C109.03 53.4141 109.151 53.3757 109.231 53.2988C109.311 53.219 109.351 53.1094 109.351 52.9698C109.351 52.8331 109.311 52.7277 109.231 52.6537C109.151 52.5768 109.03 52.5383 108.868 52.5383H108.368V53.4141Z" fill="#FF8383"/>
<path d="M91.02 67.0043V69.9864H90.4219V67.0043H91.02Z" fill="#FF8383"/>
<path d="M92.6534 67.0043C92.9667 67.0043 93.2416 67.0655 93.478 67.188C93.7172 67.3105 93.9009 67.4856 94.0291 67.7135C94.1601 67.9385 94.2256 68.2005 94.2256 68.4996C94.2256 68.7986 94.1601 69.0607 94.0291 69.2857C93.9009 69.5079 93.7172 69.6802 93.478 69.8026C93.2416 69.9251 92.9667 69.9864 92.6534 69.9864H91.6109V67.0043H92.6534ZM92.632 69.4779C92.9453 69.4779 93.1874 69.3925 93.3583 69.2216C93.5292 69.0507 93.6147 68.81 93.6147 68.4996C93.6147 68.1891 93.5292 67.947 93.3583 67.7733C93.1874 67.5967 92.9453 67.5084 92.632 67.5084H92.2091V69.4779H92.632Z" fill="#FF8383"/>
<path d="M95.2715 67.487V68.2347H96.2755V68.7089H95.2715V69.4993H96.4036V69.9864H94.6733V67H96.4036V67.487H95.2715Z" fill="#FF8383"/>
<path d="M99.4978 69.9864H98.8996L97.5453 67.9399V69.9864H96.9472V67H97.5453L98.8996 69.0507V67H99.4978V69.9864Z" fill="#FF8383"/>
<path d="M102.118 67.0043V67.487H101.324V69.9864H100.725V67.487H99.9308V67.0043H102.118Z" fill="#FF8383"/>
<path d="M103.153 67.0043V69.9864H102.555V67.0043H103.153Z" fill="#FF8383"/>
<path d="M105.585 67.0043V67.487H104.342V68.2518H105.295V68.726H104.342V69.9864H103.744V67.0043H105.585Z" fill="#FF8383"/>
<path d="M108.38 67.0043L107.372 68.9482V69.9864H106.774V68.9482L105.761 67.0043H106.436L107.077 68.3671L107.714 67.0043H108.38Z" fill="#FF8383"/>
<path d="M93.9015 43.9461H91.8005L91.4528 44.9513H90.3418L92.2388 39.6683H93.4707L95.3678 44.9513H94.2492L93.9015 43.9461ZM93.6143 43.0996L92.851 40.8927L92.0877 43.0996H93.6143Z" fill="#FF8383"/>
<path d="M97.1349 44.1124H98.8733V44.9513H96.0768V39.6759H97.1349V44.1124Z" fill="#FF8383"/>
<path d="M100.604 40.5299V41.8526H102.38V42.6915H100.604V44.0897H102.607V44.9513H99.5458V39.6683H102.607V40.5299H100.604Z" fill="#FF8383"/>
<path d="M106.289 44.9513L105.125 42.8955H104.626V44.9513H103.568V39.6759H105.548C105.957 39.6759 106.304 39.749 106.591 39.8951C106.879 40.0362 107.093 40.2301 107.234 40.477C107.38 40.7189 107.453 40.991 107.453 41.2933C107.453 41.6409 107.352 41.9558 107.151 42.238C106.949 42.5151 106.649 42.7066 106.251 42.8124L107.513 44.9513H106.289ZM104.626 42.102H105.511C105.798 42.102 106.012 42.0339 106.153 41.8979C106.294 41.7568 106.365 41.5628 106.365 41.3159C106.365 41.0741 106.294 40.8877 106.153 40.7567C106.012 40.6206 105.798 40.5526 105.511 40.5526H104.626V42.102Z" fill="#FF8383"/>
<path d="M112 39.6759V40.5299H110.594V44.9513H109.536V40.5299H108.13V39.6759H112Z" fill="#FF8383"/>
<rect x="90.2188" y="57.2439" width="16.8641" height="0.61324" rx="0.30662" fill="white"/>
<rect x="90.2188" y="60.1569" width="12.878" height="0.61324" rx="0.30662" fill="white"/>
<rect x="90.2188" y="72.4634" width="8.19512" height="0.585366" rx="0.292683" fill="white"/>
<rect x="90.2188" y="75.3901" width="16.9756" height="0.585366" rx="0.292683" fill="white"/>
<defs>
<filter id="filter0_d" x="9.04883" y="8" width="127.22" height="117" filterUnits="userSpaceOnUse" color-interpolation-filters="sRGB">
<feFlood flood-opacity="0" result="BackgroundImageFix"/>
<feColorMatrix in="SourceAlpha" type="matrix" values="0 0 0 0 0 0 0 0 0 0 0 0 0 0 0 0 0 0 127 0"/>
<feMorphology radius="10" operator="erode" in="SourceAlpha" result="effect1_dropShadow"/>
<feOffset dy="13"/>
<feGaussianBlur stdDeviation="9"/>
<feColorMatrix type="matrix" values="0 0 0 0 0 0 0 0 0 0 0 0 0 0 0 0 0 0 0.15 0"/>
<feBlend mode="normal" in2="BackgroundImageFix" result="effect1_dropShadow"/>
<feBlend mode="normal" in="SourceGraphic" in2="effect1_dropShadow" result="shape"/>
</filter>
<filter id="filter1_d" x="23.6582" y="32" width="98" height="68.8049" filterUnits="userSpaceOnUse" color-interpolation-filters="sRGB">
<feFlood flood-opacity="0" result="BackgroundImageFix"/>
<feColorMatrix in="SourceAlpha" type="matrix" values="0 0 0 0 0 0 0 0 0 0 0 0 0 0 0 0 0 0 127 0"/>
<feMorphology radius="3" operator="erode" in="SourceAlpha" result="effect1_dropShadow"/>
<feOffset dy="4"/>
<feGaussianBlur stdDeviation="2"/>
<feColorMatrix type="matrix" values="0 0 0 0 0 0 0 0 0 0 0 0 0 0 0 0 0 0 0.14 0"/>
<feBlend mode="normal" in2="BackgroundImageFix" result="effect1_dropShadow"/>
<feBlend mode="normal" in="SourceGraphic" in2="effect1_dropShadow" result="shape"/>
</filter>
<filter id="filter2_d" x="20.6582" y="12.4391" width="12.918" height="12.918" filterUnits="userSpaceOnUse" color-interpolation-filters="sRGB">
<feFlood flood-opacity="0" result="BackgroundImageFix"/>
<feColorMatrix in="SourceAlpha" type="matrix" values="0 0 0 0 0 0 0 0 0 0 0 0 0 0 0 0 0 0 127 0"/>
<feOffset dy="2"/>
<feGaussianBlur stdDeviation="2"/>
<feColorMatrix type="matrix" values="0 0 0 0 0 0 0 0 0 0 0 0 0 0 0 0 0 0 0.1 0"/>
<feBlend mode="normal" in2="BackgroundImageFix" result="effect1_dropShadow"/>
<feBlend mode="normal" in="SourceGraphic" in2="effect1_dropShadow" result="shape"/>
</filter>
<filter id="filter3_d" x="28.0352" y="12.4392" width="12.918" height="12.918" filterUnits="userSpaceOnUse" color-interpolation-filters="sRGB">
<feFlood flood-opacity="0" result="BackgroundImageFix"/>
<feColorMatrix in="SourceAlpha" type="matrix" values="0 0 0 0 0 0 0 0 0 0 0 0 0 0 0 0 0 0 127 0"/>
<feOffset dy="2"/>
<feGaussianBlur stdDeviation="2"/>
<feColorMatrix type="matrix" values="0 0 0 0 0 0 0 0 0 0 0 0 0 0 0 0 0 0 0.1 0"/>
<feBlend mode="normal" in2="BackgroundImageFix" result="effect1_dropShadow"/>
<feBlend mode="normal" in="SourceGraphic" in2="effect1_dropShadow" result="shape"/>
</filter>
<filter id="filter4_d" x="35.4141" y="12.4392" width="12.918" height="12.918" filterUnits="userSpaceOnUse" color-interpolation-filters="sRGB">
<feFlood flood-opacity="0" result="BackgroundImageFix"/>
<feColorMatrix in="SourceAlpha" type="matrix" values="0 0 0 0 0 0 0 0 0 0 0 0 0 0 0 0 0 0 127 0"/>
<feOffset dy="2"/>
<feGaussianBlur stdDeviation="2"/>
<feColorMatrix type="matrix" values="0 0 0 0 0 0 0 0 0 0 0 0 0 0 0 0 0 0 0.1 0"/>
<feBlend mode="normal" in2="BackgroundImageFix" result="effect1_dropShadow"/>
<feBlend mode="normal" in="SourceGraphic" in2="effect1_dropShadow" result="shape"/>
</filter>
<filter id="filter5_d" x="1" y="53.0731" width="84.7805" height="31.0732" filterUnits="userSpaceOnUse" color-interpolation-filters="sRGB">
<feFlood flood-opacity="0" result="BackgroundImageFix"/>
<feColorMatrix in="SourceAlpha" type="matrix" values="0 0 0 0 0 0 0 0 0 0 0 0 0 0 0 0 0 0 127 0"/>
<feMorphology radius="6" operator="erode" in="SourceAlpha" result="effect1_dropShadow"/>
<feOffset dy="8"/>
<feGaussianBlur stdDeviation="4"/>
<feColorMatrix type="matrix" values="0 0 0 0 0 0 0 0 0 0 0 0 0 0 0 0 0 0 0.18 0"/>
<feBlend mode="normal" in2="BackgroundImageFix" result="effect1_dropShadow"/>
<feBlend mode="normal" in="SourceGraphic" in2="effect1_dropShadow" result="shape"/>
</filter>
<linearGradient id="paint0_linear" x1="72.6586" y1="-4.34286" x2="72.6586" y2="109.829" gradientUnits="userSpaceOnUse">
<stop stop-color="#FFBFBB"/>
<stop offset="1" stop-color="#FF7B7B"/>
</linearGradient>
</defs>
</svg>
