<svg width="132" height="119" viewBox="0 0 132 119" fill="none" xmlns="http://www.w3.org/2000/svg">
<rect width="132" height="112" fill="white" fill-opacity="0.01"/>
<g filter="url(#filter0_d)">
<rect x="11" y="8" width="106.047" height="85.3953" rx="3.27273" fill="url(#paint0_linear)"/>
</g>
<g style="mix-blend-mode:soft-light" filter="url(#filter1_d)">
<path d="M18.2559 31.9746C18.2559 31.3721 18.7443 30.8837 19.3468 30.8837H108.7C109.302 30.8837 109.791 31.3721 109.791 31.9746V85.6067C109.791 86.2092 109.302 86.6976 108.7 86.6976H19.3468C18.7443 86.6976 18.2559 86.2092 18.2559 85.6067V31.9746Z" fill="white" fill-opacity="0.75"/>
<path d="M18.5286 31.9746C18.5286 31.5227 18.8949 31.1564 19.3468 31.1564H108.7C109.152 31.1564 109.518 31.5227 109.518 31.9746V85.6067C109.518 86.0586 109.152 86.4249 108.7 86.4249H19.3468C18.8949 86.4249 18.5286 86.0586 18.5286 85.6067V31.9746Z" stroke="#E7E7E7" stroke-width="0.545455"/>
</g>
<g style="mix-blend-mode:soft-light" opacity="0.6">
<path d="M23.1126 25.8861L20.4883 30.8838H52.5813L50.6554 25.9935C50.4911 25.5765 50.0885 25.3024 49.6403 25.3024H24.0785C23.6731 25.3024 23.3011 25.5272 23.1126 25.8861Z" fill="#F7FBFF"/>
</g>
<rect x="28.8613" y="27.5349" width="13.9535" height="1.11628" rx="0.55814" fill="#659EC7"/>
<rect x="34.4414" y="42.6046" width="28.4651" height="1.67442" rx="0.837209" fill="#659EC7"/>
<rect x="34.4414" y="46.5117" width="18.9767" height="1.67442" rx="0.837209" fill="#659EC7"/>
<g filter="url(#filter2_d)">
<circle cx="20.6005" cy="16.4842" r="2.34464" fill="white"/>
</g>
<g filter="url(#filter3_d)">
<circle cx="27.6337" cy="16.4842" r="2.34464" fill="white"/>
</g>
<g filter="url(#filter4_d)">
<circle cx="34.6689" cy="16.4842" r="2.34464" fill="white"/>
</g>
<g filter="url(#filter5_d)">
<rect x="68.4883" y="35.3489" width="53.0233" height="68.6512" rx="3.27273" fill="white"/>
</g>
<rect x="74.2734" y="50.5454" width="16.0797" height="0.584718" rx="0.292359" fill="#BDE2F4"/>
<rect x="74.2734" y="53.3228" width="12.2791" height="0.584718" rx="0.292359" fill="#BDE2F4"/>
<path d="M77.0523 73.11C77.0523 73.3053 77.0047 73.4925 76.9095 73.6716C76.8143 73.8465 76.6735 73.993 76.487 74.111C76.3045 74.2291 76.0844 74.2962 75.8265 74.3125V74.8069H75.5052V74.3125C75.1442 74.2799 74.8506 74.1619 74.6245 73.9585C74.3984 73.7509 74.2834 73.4884 74.2794 73.171H74.8566C74.8724 73.342 74.9339 73.4905 75.041 73.6166C75.1521 73.7428 75.3068 73.8221 75.5052 73.8547V72.3287C75.2394 72.2595 75.0252 72.1883 74.8625 72.1151C74.6999 72.0418 74.561 71.9279 74.446 71.7732C74.331 71.6186 74.2734 71.4111 74.2734 71.1506C74.2734 70.821 74.3845 70.5484 74.6067 70.3327C74.8328 70.117 75.1323 69.997 75.5052 69.9726V69.4659H75.8265V69.9726C76.1637 70.0011 76.4354 70.113 76.6417 70.3083C76.848 70.4995 76.967 70.7498 76.9987 71.0591H76.4216C76.4017 70.9166 76.3402 70.7885 76.2371 70.6745C76.1339 70.5565 75.9971 70.4792 75.8265 70.4426V71.9319C76.0883 72.0011 76.3006 72.0723 76.4632 72.1456C76.6298 72.2148 76.7687 72.3267 76.8797 72.4813C76.9948 72.6359 77.0523 72.8455 77.0523 73.11ZM74.8268 71.1201C74.8268 71.3195 74.8844 71.4721 74.9994 71.5779C75.1144 71.6837 75.283 71.7712 75.5052 71.8404V70.4304C75.2989 70.4507 75.1343 70.5199 75.0113 70.6379C74.8883 70.7518 74.8268 70.9126 74.8268 71.1201ZM75.8265 73.8608C76.0407 73.8364 76.2073 73.757 76.3263 73.6227C76.4493 73.4884 76.5108 73.3277 76.5108 73.1405C76.5108 72.9411 76.4513 72.7885 76.3323 72.6827C76.2133 72.5729 76.0447 72.4854 75.8265 72.4203V73.8608Z" fill="#659EC7"/>
<path d="M79.4305 70.3693V69.8627H80.5492V74.2759H80.0018V70.3693H79.4305Z" fill="#659EC7"/>
<path d="M81.4139 73.8303C81.9177 73.4152 82.3124 73.0754 82.598 72.8109C82.8836 72.5423 83.1236 72.2636 83.318 71.9747C83.5164 71.6817 83.6156 71.3948 83.6156 71.114C83.6156 70.8495 83.5521 70.642 83.4251 70.4914C83.3022 70.3368 83.1018 70.2595 82.8241 70.2595C82.5544 70.2595 82.3441 70.3469 82.1934 70.5219C82.0466 70.6928 81.9673 70.9228 81.9554 71.2117H81.4317C81.4476 70.7559 81.5825 70.4039 81.8364 70.1557C82.0903 69.9075 82.4175 69.7833 82.8182 69.7833C83.2268 69.7833 83.5501 69.8993 83.7881 70.1313C84.0301 70.3632 84.1511 70.6827 84.1511 71.0896C84.1511 71.4273 84.0519 71.757 83.8536 72.0784C83.6592 72.3958 83.437 72.6766 83.1871 72.9208C82.9372 73.1609 82.6179 73.4416 82.2291 73.7631H84.2761V74.227H81.4139V73.8303Z" fill="#659EC7"/>
<path d="M84.902 72.0235C84.902 71.3236 85.0131 70.7783 85.2352 70.3876C85.4574 69.9929 85.8461 69.7956 86.4015 69.7956C86.9529 69.7956 87.3397 69.9929 87.5619 70.3876C87.784 70.7783 87.8951 71.3236 87.8951 72.0235C87.8951 72.7356 87.784 73.2891 87.5619 73.6838C87.3397 74.0785 86.9529 74.2759 86.4015 74.2759C85.8461 74.2759 85.4574 74.0785 85.2352 73.6838C85.0131 73.2891 84.902 72.7356 84.902 72.0235ZM87.3595 72.0235C87.3595 71.6695 87.3357 71.3704 87.2881 71.1262C87.2445 70.878 87.1513 70.6786 87.0085 70.528C86.8696 70.3775 86.6673 70.3022 86.4015 70.3022C86.1318 70.3022 85.9255 70.3775 85.7827 70.528C85.6438 70.6786 85.5506 70.878 85.503 71.1262C85.4594 71.3704 85.4376 71.6695 85.4376 72.0235C85.4376 72.3897 85.4594 72.697 85.503 72.9452C85.5506 73.1934 85.6438 73.3928 85.7827 73.5434C85.9255 73.6939 86.1318 73.7692 86.4015 73.7692C86.6673 73.7692 86.8696 73.6939 87.0085 73.5434C87.1513 73.3928 87.2445 73.1934 87.2881 72.9452C87.3357 72.697 87.3595 72.3897 87.3595 72.0235Z" fill="#659EC7"/>
<path d="M88.6385 72.0235C88.6385 71.3236 88.7496 70.7783 88.9717 70.3876C89.1939 69.9929 89.5826 69.7956 90.138 69.7956C90.6894 69.7956 91.0762 69.9929 91.2983 70.3876C91.5205 70.7783 91.6316 71.3236 91.6316 72.0235C91.6316 72.7356 91.5205 73.2891 91.2983 73.6838C91.0762 74.0785 90.6894 74.2759 90.138 74.2759C89.5826 74.2759 89.1939 74.0785 88.9717 73.6838C88.7496 73.2891 88.6385 72.7356 88.6385 72.0235ZM91.096 72.0235C91.096 71.6695 91.0722 71.3704 91.0246 71.1262C90.981 70.878 90.8877 70.6786 90.7449 70.528C90.6061 70.3775 90.4038 70.3022 90.138 70.3022C89.8682 70.3022 89.662 70.3775 89.5191 70.528C89.3803 70.6786 89.2871 70.878 89.2395 71.1262C89.1958 71.3704 89.174 71.6695 89.174 72.0235C89.174 72.3897 89.1958 72.697 89.2395 72.9452C89.2871 73.1934 89.3803 73.3928 89.5191 73.5434C89.662 73.6939 89.8682 73.7692 90.138 73.7692C90.4038 73.7692 90.6061 73.6939 90.7449 73.5434C90.8877 73.3928 90.981 73.1934 91.0246 72.9452C91.0722 72.697 91.096 72.3897 91.096 72.0235Z" fill="#659EC7"/>
<g style="mix-blend-mode:soft-light">
<path d="M22.4348 55.9493C22.4348 54.8949 23.2896 54.0402 24.3439 54.0402H62.957C64.0114 54.0402 64.8661 54.8949 64.8661 55.9493V80.6089C64.8661 81.6633 64.0114 82.518 62.957 82.518H24.3439C23.2896 82.518 22.4348 81.6633 22.4348 80.6089V55.9493Z" fill="white" fill-opacity="0.75"/>
<path d="M22.4348 55.9493C22.4348 54.8949 23.2896 54.0402 24.3439 54.0402H62.957C64.0114 54.0402 64.8661 54.8949 64.8661 55.9493V80.6089C64.8661 81.6633 64.0114 82.518 62.957 82.518H24.3439C23.2896 82.518 22.4348 81.6633 22.4348 80.6089V55.9493Z" stroke="#E7E7E7" stroke-width="0.545455"/>
</g>
<rect x="24.9531" y="56.5581" width="29.0233" height="6.69767" rx="1.09091" fill="#9BD9F9"/>
<rect x="33.8828" y="59.3489" width="11.1628" height="1.11628" rx="0.55814" fill="#659FC8"/>
<rect x="24.9531" y="65.4883" width="29.0233" height="6.69767" rx="1.09091" fill="#9BD9F9"/>
<rect x="33.8828" y="68.2792" width="5.5814" height="1.11628" rx="0.55814" fill="#659FC8"/>
<rect x="24.9531" y="73.8605" width="29.0233" height="6.69767" rx="1.09091" fill="#9BD9F9"/>
<rect x="33.8828" y="76.6511" width="8.37209" height="1.11628" rx="0.55814" fill="#659FC8"/>
<path d="M74.2383 44.5328C74.2383 44.1496 74.3239 43.8072 74.495 43.5058C74.6699 43.2007 74.9062 42.9644 75.2039 42.797C75.5053 42.6258 75.842 42.5402 76.2141 42.5402C76.6494 42.5402 77.0308 42.6519 77.3583 42.8751C77.6857 43.0984 77.9146 43.4072 78.0448 43.8016H77.1462C77.0569 43.6156 76.9304 43.4761 76.7667 43.383C76.6067 43.29 76.4206 43.2435 76.2085 43.2435C75.9815 43.2435 75.7787 43.2975 75.6001 43.4054C75.4253 43.5096 75.2876 43.6584 75.1871 43.8519C75.0904 44.0454 75.042 44.2723 75.042 44.5328C75.042 44.7896 75.0904 45.0165 75.1871 45.2137C75.2876 45.4072 75.4253 45.5579 75.6001 45.6658C75.7787 45.77 75.9815 45.8221 76.2085 45.8221C76.4206 45.8221 76.6067 45.7756 76.7667 45.6826C76.9304 45.5858 77.0569 45.4444 77.1462 45.2584H78.0448C77.9146 45.6565 77.6857 45.9672 77.3583 46.1905C77.0346 46.41 76.6532 46.5198 76.2141 46.5198C75.842 46.5198 75.5053 46.4361 75.2039 46.2686C74.9062 46.0975 74.6699 45.8612 74.495 45.5598C74.3239 45.2584 74.2383 44.9161 74.2383 44.5328Z" fill="#659EC7"/>
<path d="M80.5206 46.5254C80.1559 46.5254 79.821 46.4398 79.5159 46.2686C79.2108 46.0975 78.9689 45.8612 78.7903 45.5598C78.6117 45.2547 78.5224 44.9105 78.5224 44.5272C78.5224 44.1477 78.6117 43.8072 78.7903 43.5058C78.9689 43.2007 79.2108 42.9626 79.5159 42.7914C79.821 42.6202 80.1559 42.5347 80.5206 42.5347C80.8889 42.5347 81.2238 42.6202 81.5252 42.7914C81.8303 42.9626 82.0703 43.2007 82.2452 43.5058C82.4238 43.8072 82.5131 44.1477 82.5131 44.5272C82.5131 44.9105 82.4238 45.2547 82.2452 45.5598C82.0703 45.8612 81.8303 46.0975 81.5252 46.2686C81.2201 46.4398 80.8852 46.5254 80.5206 46.5254ZM80.5206 45.8277C80.755 45.8277 80.9615 45.7756 81.1401 45.6714C81.3187 45.5635 81.4583 45.4109 81.5587 45.2137C81.6592 45.0165 81.7094 44.7877 81.7094 44.5272C81.7094 44.2668 81.6592 44.0398 81.5587 43.8463C81.4583 43.6491 81.3187 43.4984 81.1401 43.3942C80.9615 43.29 80.755 43.2379 80.5206 43.2379C80.2862 43.2379 80.0778 43.29 79.8955 43.3942C79.7169 43.4984 79.5773 43.6491 79.4769 43.8463C79.3764 44.0398 79.3262 44.2668 79.3262 44.5272C79.3262 44.7877 79.3764 45.0165 79.4769 45.2137C79.5773 45.4109 79.7169 45.5635 79.8955 45.6714C80.0778 45.7756 80.2862 45.8277 80.5206 45.8277Z" fill="#659EC7"/>
<path d="M86.4266 46.4863H85.6452L83.8759 43.8128V46.4863H83.0945V42.5849H83.8759L85.6452 45.264V42.5849H86.4266V46.4863Z" fill="#659EC7"/>
<path d="M89.8499 42.5905V43.2212H88.8118V46.4863H88.0304V43.2212H86.9922V42.5905H89.8499Z" fill="#659EC7"/>
<path d="M92.4294 46.4863L91.5698 44.9682H91.2014V46.4863H90.4201V42.5905H91.8824C92.1838 42.5905 92.4405 42.6444 92.6526 42.7523C92.8647 42.8565 93.0228 42.9998 93.127 43.1821C93.2349 43.3607 93.2889 43.5616 93.2889 43.7849C93.2889 44.0416 93.2145 44.2742 93.0656 44.4826C92.9168 44.6872 92.6954 44.8286 92.4015 44.9068L93.3335 46.4863H92.4294ZM91.2014 44.3821H91.8545C92.0666 44.3821 92.2247 44.3319 92.3289 44.2314C92.4331 44.1272 92.4852 43.984 92.4852 43.8016C92.4852 43.623 92.4331 43.4854 92.3289 43.3886C92.2247 43.2882 92.0666 43.2379 91.8545 43.2379H91.2014V44.3821Z" fill="#659EC7"/>
<path d="M96.3845 45.744H94.8328L94.5761 46.4863H93.7556L95.1566 42.5849H96.0663L97.4673 46.4863H96.6412L96.3845 45.744ZM96.1724 45.1189L95.6087 43.4891L95.0449 45.1189H96.1724Z" fill="#659EC7"/>
<path d="M97.8011 44.5328C97.8011 44.1496 97.8867 43.8072 98.0579 43.5058C98.2328 43.2007 98.4691 42.9644 98.7667 42.797C99.0681 42.6258 99.4049 42.5402 99.777 42.5402C100.212 42.5402 100.594 42.6519 100.921 42.8751C101.249 43.0984 101.477 43.4072 101.608 43.8016H100.709C100.62 43.6156 100.493 43.4761 100.33 43.383C100.17 43.29 99.9835 43.2435 99.7714 43.2435C99.5444 43.2435 99.3416 43.2975 99.163 43.4054C98.9881 43.5096 98.8504 43.6584 98.75 43.8519C98.6532 44.0454 98.6049 44.2723 98.6049 44.5328C98.6049 44.7896 98.6532 45.0165 98.75 45.2137C98.8504 45.4072 98.9881 45.5579 99.163 45.6658C99.3416 45.77 99.5444 45.8221 99.7714 45.8221C99.9835 45.8221 100.17 45.7756 100.33 45.6826C100.493 45.5858 100.62 45.4444 100.709 45.2584H101.608C101.477 45.6565 101.249 45.9672 100.921 46.1905C100.597 46.41 100.216 46.5198 99.777 46.5198C99.4049 46.5198 99.0681 46.4361 98.7667 46.2686C98.4691 46.0975 98.2328 45.8612 98.0579 45.5598C97.8867 45.2584 97.8011 44.9161 97.8011 44.5328Z" fill="#659EC7"/>
<path d="M104.926 42.5905V43.2212H103.888V46.4863H103.107V43.2212H102.069V42.5905H104.926Z" fill="#659EC7"/>
<ellipse cx="29" cy="60" rx="2.25" ry="2.25" stroke="#3676A2" stroke-width="0.4" stroke-linecap="round" stroke-linejoin="round"/>
<path d="M30 61C29.9709 60.9268 29.9258 60.8612 29.868 60.8077V60.8077C29.7706 60.7172 29.6425 60.6668 29.5095 60.6667H28.4907C28.3577 60.6668 28.2295 60.7172 28.132 60.8077V60.8077C28.0743 60.8613 28.0292 60.9269 28 61" stroke="#3676A2" stroke-width="0.4" stroke-linecap="round" stroke-linejoin="round"/>
<circle cx="29" cy="59.5624" r="0.5625" stroke="#3676A2" stroke-width="0.4" stroke-linecap="round" stroke-linejoin="round"/>
<ellipse cx="29" cy="69" rx="2.25" ry="2.25" stroke="#3676A2" stroke-width="0.4" stroke-linecap="round" stroke-linejoin="round"/>
<path d="M30 70C29.9709 69.9268 29.9258 69.8612 29.868 69.8077V69.8077C29.7706 69.7172 29.6425 69.6668 29.5095 69.6667H28.4907C28.3577 69.6668 28.2295 69.7172 28.132 69.8077V69.8077C28.0743 69.8613 28.0292 69.9269 28 70" stroke="#3676A2" stroke-width="0.4" stroke-linecap="round" stroke-linejoin="round"/>
<circle cx="29" cy="68.5624" r="0.5625" stroke="#3676A2" stroke-width="0.4" stroke-linecap="round" stroke-linejoin="round"/>
<ellipse cx="29" cy="77.2094" rx="2.25" ry="2.25" stroke="#3676A2" stroke-width="0.4" stroke-linecap="round" stroke-linejoin="round"/>
<path d="M30 78.2093C29.9709 78.1362 29.9258 78.0705 29.868 78.0171V78.0171C29.7706 77.9265 29.6425 77.8762 29.5095 77.8761H28.4907C28.3577 77.8762 28.2295 77.9265 28.132 78.0171V78.0171C28.0743 78.0706 28.0292 78.1363 28 78.2093" stroke="#3676A2" stroke-width="0.4" stroke-linecap="round" stroke-linejoin="round"/>
<circle cx="29" cy="76.7717" r="0.5625" stroke="#3676A2" stroke-width="0.4" stroke-linecap="round" stroke-linejoin="round"/>
<rect x="57.8828" y="58.7906" width="4.46512" height="0.55814" rx="0.27907" fill="#91A2BB"/>
<rect x="57.8828" y="67.7208" width="4.46512" height="0.55814" rx="0.27907" fill="#91A2BB"/>
<rect x="57.8828" y="76.093" width="4.46512" height="0.55814" rx="0.27907" fill="#91A2BB"/>
<rect x="57.8828" y="60.4651" width="2.7907" height="0.55814" rx="0.27907" fill="#91A2BB"/>
<rect x="57.8828" y="69.3954" width="2.7907" height="0.55814" rx="0.27907" fill="#91A2BB"/>
<rect x="57.8828" y="77.7675" width="2.7907" height="0.55814" rx="0.27907" fill="#91A2BB"/>
<path d="M99.7441 20.8374H103.539" stroke="white" stroke-width="0.872727" stroke-miterlimit="10" stroke-linecap="round" stroke-linejoin="round"/>
<path d="M99.7441 22.5117H101.921" stroke="white" stroke-width="0.872727" stroke-miterlimit="10" stroke-linecap="round" stroke-linejoin="round"/>
<path d="M101.921 25.3024H99.1866C98.5726 25.3024 98.0703 24.8 98.0703 24.1861V16.3721C98.0703 15.7582 98.5726 15.2559 99.1866 15.2559H104.768C105.382 15.2559 105.884 15.7582 105.884 16.3721V19.721" stroke="white" stroke-width="0.872727" stroke-miterlimit="10" stroke-linecap="round" stroke-linejoin="round"/>
<path d="M107.169 20.6699L103.652 24.1862V25.3024H104.769L108.285 21.7862C108.508 21.5629 108.508 21.228 108.285 21.0048L107.95 20.6699C107.727 20.4466 107.392 20.4466 107.169 20.6699Z" stroke="white" stroke-width="0.872727" stroke-miterlimit="10" stroke-linecap="round" stroke-linejoin="round"/>
<path d="M100.581 18.6047H99.7441V16.9303H100.581C101.028 16.9303 101.419 17.321 101.419 17.7675C101.419 18.214 101.028 18.6047 100.581 18.6047Z" stroke="white" stroke-width="0.872727" stroke-miterlimit="10" stroke-linecap="round" stroke-linejoin="round"/>
<path d="M76.1489 64.9712C75.9095 64.9712 75.6931 64.9302 75.4996 64.8483C75.3095 64.7663 75.1586 64.6482 75.0471 64.4941C74.9357 64.34 74.8783 64.158 74.875 63.9482H75.6128C75.6226 64.0892 75.6718 64.2007 75.7603 64.2826C75.8521 64.3646 75.9767 64.4056 76.1341 64.4056C76.2948 64.4056 76.421 64.3679 76.5128 64.2925C76.6046 64.2138 76.6505 64.1121 76.6505 63.9875C76.6505 63.8859 76.6194 63.8023 76.5571 63.7367C76.4948 63.6711 76.4161 63.6203 76.321 63.5842C76.2292 63.5449 76.1013 63.5023 75.9374 63.4564C75.7144 63.3908 75.5324 63.3268 75.3914 63.2645C75.2537 63.199 75.134 63.1022 75.0324 62.9744C74.934 62.8432 74.8848 62.6694 74.8848 62.453C74.8848 62.2497 74.9357 62.0727 75.0373 61.9218C75.139 61.771 75.2816 61.6562 75.4652 61.5775C75.6488 61.4956 75.8587 61.4546 76.0948 61.4546C76.4489 61.4546 76.7358 61.5415 76.9555 61.7153C77.1784 61.8858 77.3014 62.1251 77.3243 62.4333H76.5669C76.5604 62.3153 76.5095 62.2186 76.4144 62.1432C76.3226 62.0645 76.1997 62.0251 76.0456 62.0251C75.9111 62.0251 75.8029 62.0595 75.721 62.1284C75.6423 62.1973 75.6029 62.2973 75.6029 62.4284C75.6029 62.5202 75.6324 62.5973 75.6914 62.6596C75.7537 62.7186 75.8292 62.7678 75.9177 62.8071C76.0095 62.8432 76.1374 62.8858 76.3013 62.935C76.5243 63.0006 76.7063 63.0662 76.8473 63.1317C76.9883 63.1973 77.1096 63.2957 77.2112 63.4269C77.3129 63.558 77.3637 63.7301 77.3637 63.9433C77.3637 64.1269 77.3161 64.2974 77.2211 64.4548C77.126 64.6122 76.9866 64.7384 76.803 64.8335C76.6194 64.9253 76.4013 64.9712 76.1489 64.9712Z" fill="#3676A2"/>
<path d="M78.6394 61.5038V63.6285C78.6394 63.8613 78.7 64.04 78.8214 64.1646C78.9427 64.2859 79.1132 64.3466 79.3329 64.3466C79.5558 64.3466 79.728 64.2859 79.8493 64.1646C79.9706 64.04 80.0313 63.8613 80.0313 63.6285V61.5038H80.7248V63.6236C80.7248 63.9154 80.6608 64.163 80.533 64.3663C80.4084 64.5663 80.2395 64.7171 80.0264 64.8187C79.8165 64.9204 79.5821 64.9712 79.323 64.9712C79.0673 64.9712 78.8345 64.9204 78.6246 64.8187C78.4181 64.7171 78.2541 64.5663 78.1328 64.3663C78.0115 64.163 77.9508 63.9154 77.9508 63.6236V61.5038H78.6394Z" fill="#3676A2"/>
<path d="M83.3377 63.176C83.5312 63.2121 83.6902 63.3088 83.8148 63.4662C83.9394 63.6236 84.0017 63.8039 84.0017 64.0072C84.0017 64.1908 83.9558 64.3531 83.864 64.4941C83.7755 64.6318 83.6459 64.7401 83.4754 64.8187C83.3049 64.8974 83.1033 64.9368 82.8705 64.9368H81.3901V61.5038H82.8065C83.0393 61.5038 83.2394 61.5415 83.4066 61.6169C83.5771 61.6923 83.705 61.7972 83.7902 61.9317C83.8787 62.0661 83.923 62.2186 83.923 62.3891C83.923 62.5891 83.8689 62.7563 83.7607 62.8907C83.6558 63.0252 83.5148 63.1203 83.3377 63.176ZM82.0786 62.9203H82.7082C82.8721 62.9203 82.9984 62.8842 83.0869 62.8121C83.1754 62.7366 83.2197 62.6301 83.2197 62.4924C83.2197 62.3546 83.1754 62.2481 83.0869 62.1727C82.9984 62.0973 82.8721 62.0595 82.7082 62.0595H82.0786V62.9203ZM82.7721 64.3761C82.9393 64.3761 83.0689 64.3367 83.1607 64.2581C83.2557 64.1794 83.3033 64.0679 83.3033 63.9236C83.3033 63.7761 83.2541 63.6613 83.1557 63.5793C83.0574 63.4941 82.9246 63.4514 82.7574 63.4514H82.0786V64.3761H82.7721Z" fill="#3676A2"/>
<path d="M85.7358 64.9712C85.4964 64.9712 85.28 64.9302 85.0866 64.8483C84.8964 64.7663 84.7456 64.6482 84.6341 64.4941C84.5226 64.34 84.4652 64.158 84.4619 63.9482H85.1997C85.2095 64.0892 85.2587 64.2007 85.3473 64.2826C85.4391 64.3646 85.5637 64.4056 85.721 64.4056C85.8817 64.4056 86.008 64.3679 86.0998 64.2925C86.1916 64.2138 86.2375 64.1121 86.2375 63.9875C86.2375 63.8859 86.2063 63.8023 86.144 63.7367C86.0817 63.6711 86.003 63.6203 85.9079 63.5842C85.8161 63.5449 85.6883 63.5023 85.5243 63.4564C85.3013 63.3908 85.1194 63.3268 84.9784 63.2645C84.8407 63.199 84.721 63.1022 84.6193 62.9744C84.521 62.8432 84.4718 62.6694 84.4718 62.453C84.4718 62.2497 84.5226 62.0727 84.6243 61.9218C84.7259 61.771 84.8685 61.6562 85.0522 61.5775C85.2358 61.4956 85.4456 61.4546 85.6817 61.4546C86.0358 61.4546 86.3227 61.5415 86.5424 61.7153C86.7654 61.8858 86.8883 62.1251 86.9113 62.4333H86.1539C86.1473 62.3153 86.0965 62.2186 86.0014 62.1432C85.9096 62.0645 85.7866 62.0251 85.6325 62.0251C85.4981 62.0251 85.3899 62.0595 85.3079 62.1284C85.2292 62.1973 85.1899 62.2973 85.1899 62.4284C85.1899 62.5202 85.2194 62.5973 85.2784 62.6596C85.3407 62.7186 85.4161 62.7678 85.5046 62.8071C85.5964 62.8432 85.7243 62.8858 85.8883 62.935C86.1112 63.0006 86.2932 63.0662 86.4342 63.1317C86.5752 63.1973 86.6965 63.2957 86.7982 63.4269C86.8998 63.558 86.9506 63.7301 86.9506 63.9433C86.9506 64.1269 86.9031 64.2974 86.808 64.4548C86.7129 64.6122 86.5736 64.7384 86.3899 64.8335C86.2063 64.9253 85.9883 64.9712 85.7358 64.9712Z" fill="#3676A2"/>
<path d="M87.3804 63.2154C87.3804 62.8776 87.4558 62.576 87.6066 62.3104C87.7607 62.0415 87.9689 61.8333 88.2313 61.6858C88.4968 61.5349 88.7936 61.4595 89.1215 61.4595C89.5051 61.4595 89.8412 61.5579 90.1297 61.7546C90.4183 61.9513 90.6199 62.2235 90.7347 62.5711H89.9428C89.8641 62.4071 89.7527 62.2842 89.6084 62.2022C89.4674 62.1202 89.3035 62.0792 89.1166 62.0792C88.9165 62.0792 88.7378 62.1268 88.5805 62.2219C88.4263 62.3137 88.305 62.4448 88.2165 62.6153C88.1312 62.7858 88.0886 62.9858 88.0886 63.2154C88.0886 63.4416 88.1312 63.6416 88.2165 63.8154C88.305 63.9859 88.4263 64.1187 88.5805 64.2138C88.7378 64.3056 88.9165 64.3515 89.1166 64.3515C89.3035 64.3515 89.4674 64.3105 89.6084 64.2285C89.7527 64.1433 89.8641 64.0187 89.9428 63.8547H90.7347C90.6199 64.2056 90.4183 64.4794 90.1297 64.6761C89.8445 64.8696 89.5084 64.9663 89.1215 64.9663C88.7936 64.9663 88.4968 64.8925 88.2313 64.745C87.9689 64.5941 87.7607 64.3859 87.6066 64.1203C87.4558 63.8547 87.3804 63.5531 87.3804 63.2154Z" fill="#3676A2"/>
<path d="M93.0934 64.9368L92.336 63.599H92.0114V64.9368H91.3228V61.5038H92.6114C92.877 61.5038 93.1033 61.5513 93.2902 61.6464C93.4771 61.7382 93.6164 61.8645 93.7082 62.0251C93.8033 62.1825 93.8509 62.3596 93.8509 62.5563C93.8509 62.7825 93.7853 62.9875 93.6541 63.1711C93.523 63.3514 93.3279 63.476 93.0688 63.5449L93.8902 64.9368H93.0934ZM92.0114 63.0826H92.5868C92.7737 63.0826 92.9131 63.0383 93.0049 62.9498C93.0967 62.858 93.1426 62.7317 93.1426 62.5711C93.1426 62.4137 93.0967 62.2923 93.0049 62.2071C92.9131 62.1186 92.7737 62.0743 92.5868 62.0743H92.0114V63.0826Z" fill="#3676A2"/>
<path d="M95.1622 61.5038V64.9368H94.4736V61.5038H95.1622Z" fill="#3676A2"/>
<path d="M98.346 62.5661C98.346 62.7498 98.3017 62.9219 98.2132 63.0826C98.1279 63.2432 97.9918 63.3727 97.8049 63.4711C97.6213 63.5695 97.3885 63.6187 97.1065 63.6187H96.5311V64.9368H95.8425V61.5038H97.1065C97.3721 61.5038 97.5984 61.5497 97.7853 61.6415C97.9722 61.7333 98.1115 61.8595 98.2033 62.0202C98.2984 62.1809 98.346 62.3628 98.346 62.5661ZM97.077 63.0629C97.2672 63.0629 97.4082 63.0203 97.5 62.935C97.5918 62.8465 97.6377 62.7235 97.6377 62.5661C97.6377 62.2317 97.4508 62.0645 97.077 62.0645H96.5311V63.0629H97.077Z" fill="#3676A2"/>
<path d="M101.171 61.5038V62.0595H100.256V64.9368H99.5677V62.0595H98.6529V61.5038H101.171Z" fill="#3676A2"/>
<path d="M102.362 61.5038V64.9368H101.673V61.5038H102.362Z" fill="#3676A2"/>
<path d="M104.636 64.9712C104.315 64.9712 104.019 64.8958 103.751 64.745C103.482 64.5941 103.269 64.3859 103.111 64.1203C102.954 63.8515 102.875 63.5482 102.875 63.2104C102.875 62.876 102.954 62.576 103.111 62.3104C103.269 62.0415 103.482 61.8317 103.751 61.6808C104.019 61.53 104.315 61.4546 104.636 61.4546C104.96 61.4546 105.256 61.53 105.521 61.6808C105.79 61.8317 106.002 62.0415 106.156 62.3104C106.313 62.576 106.392 62.876 106.392 63.2104C106.392 63.5482 106.313 63.8515 106.156 64.1203C106.002 64.3859 105.79 64.5941 105.521 64.745C105.252 64.8958 104.957 64.9712 104.636 64.9712ZM104.636 64.3564C104.842 64.3564 105.024 64.3105 105.182 64.2187C105.339 64.1236 105.462 63.9892 105.551 63.8154C105.639 63.6416 105.683 63.44 105.683 63.2104C105.683 62.9809 105.639 62.7809 105.551 62.6104C105.462 62.4366 105.339 62.3038 105.182 62.212C105.024 62.1202 104.842 62.0743 104.636 62.0743C104.429 62.0743 104.246 62.1202 104.085 62.212C103.928 62.3038 103.805 62.4366 103.716 62.6104C103.628 62.7809 103.583 62.9809 103.583 63.2104C103.583 63.44 103.628 63.6416 103.716 63.8154C103.805 63.9892 103.928 64.1236 104.085 64.2187C104.246 64.3105 104.429 64.3564 104.636 64.3564Z" fill="#3676A2"/>
<path d="M109.84 64.9368H109.152L107.593 62.5809V64.9368H106.904V61.4989H107.593L109.152 63.8597V61.4989H109.84V64.9368Z" fill="#3676A2"/>
<path d="M74.7969 85.2495C74.7969 84.9118 74.8723 84.6102 75.0231 84.3446C75.1772 84.0757 75.3854 83.8675 75.6478 83.7199C75.9133 83.5691 76.2101 83.4937 76.538 83.4937C76.9216 83.4937 77.2577 83.5921 77.5462 83.7888C77.8348 83.9855 78.0364 84.2577 78.1512 84.6052H77.3593C77.2806 84.4413 77.1692 84.3183 77.0249 84.2364C76.8839 84.1544 76.72 84.1134 76.5331 84.1134C76.333 84.1134 76.1543 84.1609 75.997 84.256C75.8428 84.3478 75.7215 84.479 75.633 84.6495C75.5477 84.82 75.5051 85.02 75.5051 85.2495C75.5051 85.4758 75.5477 85.6758 75.633 85.8496C75.7215 86.0201 75.8428 86.1529 75.997 86.248C76.1543 86.3398 76.333 86.3857 76.5331 86.3857C76.72 86.3857 76.8839 86.3447 77.0249 86.2627C77.1692 86.1775 77.2806 86.0529 77.3593 85.8889H78.1512C78.0364 86.2398 77.8348 86.5136 77.5462 86.7103C77.261 86.9037 76.9249 87.0005 76.538 87.0005C76.2101 87.0005 75.9133 86.9267 75.6478 86.7791C75.3854 86.6283 75.1772 86.4201 75.0231 86.1545C74.8723 85.8889 74.7969 85.5873 74.7969 85.2495Z" fill="#3676A2"/>
<path d="M79.4181 83.538V85.6627C79.4181 85.8955 79.4787 86.0742 79.6 86.1988C79.7214 86.3201 79.8919 86.3808 80.1115 86.3808C80.3345 86.3808 80.5066 86.3201 80.628 86.1988C80.7493 86.0742 80.8099 85.8955 80.8099 85.6627V83.538H81.5034V85.6578C81.5034 85.9496 81.4395 86.1971 81.3116 86.4004C81.187 86.6004 81.0182 86.7513 80.805 86.8529C80.5952 86.9546 80.3607 87.0054 80.1017 87.0054C79.8459 87.0054 79.6131 86.9546 79.4033 86.8529C79.1967 86.7513 79.0328 86.6004 78.9115 86.4004C78.7901 86.1971 78.7295 85.9496 78.7295 85.6578V83.538H79.4181Z" fill="#3676A2"/>
<path d="M83.354 87.0054C83.1147 87.0054 82.8983 86.9644 82.7048 86.8824C82.5146 86.8005 82.3638 86.6824 82.2523 86.5283C82.1408 86.3742 82.0835 86.1922 82.0802 85.9824H82.8179C82.8278 86.1234 82.877 86.2349 82.9655 86.3168C83.0573 86.3988 83.1819 86.4398 83.3393 86.4398C83.5 86.4398 83.6262 86.4021 83.718 86.3267C83.8098 86.248 83.8557 86.1463 83.8557 86.0217C83.8557 85.9201 83.8246 85.8365 83.7623 85.7709C83.7 85.7053 83.6213 85.6545 83.5262 85.6184C83.4344 85.5791 83.3065 85.5364 83.1426 85.4905C82.9196 85.425 82.7376 85.361 82.5966 85.2987C82.4589 85.2331 82.3392 85.1364 82.2376 85.0085C82.1392 84.8774 82.09 84.7036 82.09 84.4872C82.09 84.2839 82.1408 84.1068 82.2425 83.956C82.3441 83.8052 82.4868 83.6904 82.6704 83.6117C82.854 83.5298 83.0639 83.4888 83.2999 83.4888C83.6541 83.4888 83.941 83.5757 84.1607 83.7494C84.3836 83.9199 84.5066 84.1593 84.5295 84.4675H83.7721C83.7655 84.3495 83.7147 84.2528 83.6196 84.1773C83.5278 84.0986 83.4049 84.0593 83.2508 84.0593C83.1163 84.0593 83.0081 84.0937 82.9261 84.1626C82.8475 84.2314 82.8081 84.3314 82.8081 84.4626C82.8081 84.5544 82.8376 84.6315 82.8966 84.6938C82.9589 84.7528 83.0344 84.802 83.1229 84.8413C83.2147 84.8774 83.3426 84.92 83.5065 84.9692C83.7295 85.0348 83.9115 85.1004 84.0524 85.1659C84.1934 85.2315 84.3148 85.3299 84.4164 85.461C84.5181 85.5922 84.5689 85.7643 84.5689 85.9775C84.5689 86.1611 84.5213 86.3316 84.4262 86.489C84.3312 86.6464 84.1918 86.7726 84.0082 86.8677C83.8246 86.9595 83.6065 87.0054 83.354 87.0054Z" fill="#3676A2"/>
<path d="M87.5021 83.538V84.0937H86.5872V86.971H85.8987V84.0937H84.9839V83.538H87.5021Z" fill="#3676A2"/>
<path d="M89.598 87.0054C89.2767 87.0054 88.9816 86.93 88.7127 86.7791C88.4438 86.6283 88.2307 86.4201 88.0733 86.1545C87.9159 85.8856 87.8372 85.5823 87.8372 85.2446C87.8372 84.9102 87.9159 84.6102 88.0733 84.3446C88.2307 84.0757 88.4438 83.8658 88.7127 83.715C88.9816 83.5642 89.2767 83.4888 89.598 83.4888C89.9226 83.4888 90.2177 83.5642 90.4833 83.715C90.7522 83.8658 90.9637 84.0757 91.1178 84.3446C91.2752 84.6102 91.3539 84.9102 91.3539 85.2446C91.3539 85.5823 91.2752 85.8856 91.1178 86.1545C90.9637 86.4201 90.7522 86.6283 90.4833 86.7791C90.2144 86.93 89.9193 87.0054 89.598 87.0054ZM89.598 86.3906C89.8046 86.3906 89.9866 86.3447 90.1439 86.2529C90.3013 86.1578 90.4243 86.0234 90.5128 85.8496C90.6014 85.6758 90.6456 85.4741 90.6456 85.2446C90.6456 85.0151 90.6014 84.8151 90.5128 84.6446C90.4243 84.4708 90.3013 84.338 90.1439 84.2462C89.9866 84.1544 89.8046 84.1085 89.598 84.1085C89.3914 84.1085 89.2078 84.1544 89.0472 84.2462C88.8898 84.338 88.7668 84.4708 88.6783 84.6446C88.5897 84.8151 88.5455 85.0151 88.5455 85.2446C88.5455 85.4741 88.5897 85.6758 88.6783 85.8496C88.7668 86.0234 88.8898 86.1578 89.0472 86.2529C89.2078 86.3447 89.3914 86.3906 89.598 86.3906Z" fill="#3676A2"/>
<path d="M95.609 83.538V86.971H94.9204V84.738L94.0007 86.971H93.4794L92.5547 84.738V86.971H91.8661V83.538H92.6482L93.74 86.0906L94.8319 83.538H95.609Z" fill="#3676A2"/>
<path d="M99.9652 84.6003C99.9652 84.7839 99.9209 84.9561 99.8324 85.1167C99.7471 85.2774 99.611 85.4069 99.4242 85.5053C99.2405 85.6037 99.0077 85.6528 98.7257 85.6528H98.1503V86.971H97.4617V83.538H98.7257C98.9913 83.538 99.2176 83.5839 99.4045 83.6757C99.5914 83.7675 99.7307 83.8937 99.8225 84.0544C99.9176 84.215 99.9652 84.397 99.9652 84.6003ZM98.6962 85.0971C98.8864 85.0971 99.0274 85.0544 99.1192 84.9692C99.211 84.8807 99.2569 84.7577 99.2569 84.6003C99.2569 84.2659 99.07 84.0986 98.6962 84.0986H98.1503V85.0971H98.6962Z" fill="#3676A2"/>
<path d="M102.225 86.971L101.467 85.6332H101.143V86.971H100.454V83.538H101.743C102.008 83.538 102.234 83.5855 102.421 83.6806C102.608 83.7724 102.748 83.8986 102.839 84.0593C102.935 84.2167 102.982 84.3937 102.982 84.5905C102.982 84.8167 102.917 85.0217 102.785 85.2053C102.654 85.3856 102.459 85.5102 102.2 85.5791L103.021 86.971H102.225ZM101.143 85.1167H101.718C101.905 85.1167 102.044 85.0725 102.136 84.9839C102.228 84.8921 102.274 84.7659 102.274 84.6052C102.274 84.4478 102.228 84.3265 102.136 84.2413C102.044 84.1527 101.905 84.1085 101.718 84.1085H101.143V85.1167Z" fill="#3676A2"/>
<path d="M104.293 83.538V86.971H103.605V83.538H104.293Z" fill="#3676A2"/>
<path d="M104.807 85.2495C104.807 84.9118 104.882 84.6102 105.033 84.3446C105.187 84.0757 105.395 83.8675 105.657 83.7199C105.923 83.5691 106.22 83.4937 106.548 83.4937C106.931 83.4937 107.267 83.5921 107.556 83.7888C107.844 83.9855 108.046 84.2577 108.161 84.6052H107.369C107.29 84.4413 107.179 84.3183 107.035 84.2364C106.894 84.1544 106.73 84.1134 106.543 84.1134C106.343 84.1134 106.164 84.1609 106.007 84.256C105.852 84.3478 105.731 84.479 105.643 84.6495C105.557 84.82 105.515 85.02 105.515 85.2495C105.515 85.4758 105.557 85.6758 105.643 85.8496C105.731 86.0201 105.852 86.1529 106.007 86.248C106.164 86.3398 106.343 86.3857 106.543 86.3857C106.73 86.3857 106.894 86.3447 107.035 86.2627C107.179 86.1775 107.29 86.0529 107.369 85.8889H108.161C108.046 86.2398 107.844 86.5136 107.556 86.7103C107.271 86.9037 106.935 87.0005 106.548 87.0005C106.22 87.0005 105.923 86.9267 105.657 86.7791C105.395 86.6283 105.187 86.4201 105.033 86.1545C104.882 85.8889 104.807 85.5873 104.807 85.2495Z" fill="#3676A2"/>
<path d="M109.438 83.538V86.971H108.749V83.538H109.438Z" fill="#3676A2"/>
<path d="M113.054 86.971H112.366L110.806 84.6151V86.971H110.118V83.533H110.806L112.366 85.8938V83.533H113.054V86.971Z" fill="#3676A2"/>
<path d="M116.125 84.5708C116.046 84.4265 115.938 84.3167 115.8 84.2413C115.663 84.1659 115.502 84.1282 115.318 84.1282C115.115 84.1282 114.935 84.1741 114.777 84.2659C114.62 84.3577 114.497 84.4888 114.408 84.6593C114.32 84.8298 114.276 85.0266 114.276 85.2495C114.276 85.4791 114.32 85.6791 114.408 85.8496C114.5 86.0201 114.626 86.1512 114.787 86.243C114.948 86.3349 115.135 86.3808 115.348 86.3808C115.61 86.3808 115.825 86.3119 115.992 86.1742C116.159 86.0332 116.269 85.8381 116.322 85.5889H115.141V85.0626H117V85.6627C116.954 85.902 116.856 86.1234 116.705 86.3267C116.554 86.53 116.359 86.6939 116.12 86.8185C115.884 86.9398 115.618 87.0005 115.323 87.0005C114.992 87.0005 114.692 86.9267 114.423 86.7791C114.158 86.6283 113.948 86.4201 113.794 86.1545C113.643 85.8889 113.567 85.5873 113.567 85.2495C113.567 84.9118 113.643 84.6102 113.794 84.3446C113.948 84.0757 114.158 83.8675 114.423 83.7199C114.692 83.5691 114.99 83.4937 115.318 83.4937C115.705 83.4937 116.041 83.5888 116.327 83.779C116.612 83.9658 116.809 84.2298 116.917 84.5708H116.125Z" fill="#3676A2"/>
<path d="M77.3776 95.2077C77.3776 95.4204 77.3244 95.6243 77.218 95.8192C77.1117 96.0098 76.9544 96.1693 76.7461 96.2978C76.5423 96.4263 76.2963 96.4994 76.0083 96.5172V97.0556H75.6494V96.5172C75.2461 96.4817 74.9182 96.3532 74.6656 96.1316C74.413 95.9057 74.2845 95.6198 74.2801 95.2742H74.9248C74.9426 95.4603 75.0112 95.622 75.1309 95.7594C75.255 95.8968 75.4278 95.9832 75.6494 96.0187V94.3569C75.3525 94.2816 75.1132 94.204 74.9315 94.1243C74.7498 94.0445 74.5947 93.9204 74.4662 93.752C74.3377 93.5837 74.2734 93.3577 74.2734 93.0741C74.2734 92.7151 74.3975 92.4182 74.6457 92.1834C74.8982 91.9485 75.2328 91.8178 75.6494 91.7912V91.2395H76.0083V91.7912C76.3849 91.8222 76.6885 91.9441 76.9189 92.1568C77.1493 92.3651 77.2823 92.6376 77.3177 92.9744H76.673C76.6508 92.8193 76.5821 92.6797 76.4669 92.5556C76.3517 92.4271 76.1988 92.3429 76.0083 92.303V93.9249C76.3008 94.0002 76.5378 94.0777 76.7195 94.1575C76.9056 94.2328 77.0607 94.3547 77.1848 94.5231C77.3133 94.6915 77.3776 94.9197 77.3776 95.2077ZM74.8916 93.0408C74.8916 93.258 74.9559 93.4241 75.0844 93.5393C75.2129 93.6546 75.4012 93.7498 75.6494 93.8252V92.2897C75.4189 92.3119 75.235 92.3872 75.0977 92.5157C74.9603 92.6398 74.8916 92.8148 74.8916 93.0408ZM76.0083 96.0253C76.2476 95.9987 76.4337 95.9123 76.5666 95.7661C76.704 95.6198 76.7727 95.4448 76.7727 95.241C76.7727 95.0238 76.7062 94.8577 76.5733 94.7424C76.4403 94.6228 76.252 94.5275 76.0083 94.4566V96.0253Z" fill="#659EC7"/>
<path d="M80.0474 95.4071V94.9485L82.3805 91.7181H83.105V94.882H83.7697V95.4071H83.105V96.4773H82.5068V95.4071H80.0474ZM82.5334 92.3495L80.7454 94.882H82.5334V92.3495Z" fill="#659EC7"/>
<path d="M84.3607 92.8813C84.3917 92.4736 84.549 92.1546 84.8326 91.9241C85.1162 91.6937 85.484 91.5785 85.936 91.5785C86.2373 91.5785 86.4966 91.6339 86.7137 91.7447C86.9353 91.851 87.1014 91.9973 87.2122 92.1834C87.3274 92.3695 87.385 92.58 87.385 92.8148C87.385 93.0896 87.3053 93.3266 87.1458 93.526C86.9907 93.7255 86.7868 93.854 86.5342 93.9116V93.9448C86.8223 94.0157 87.0505 94.1553 87.2189 94.3636C87.3873 94.5718 87.4715 94.8444 87.4715 95.1811C87.4715 95.4337 87.4138 95.6619 87.2986 95.8658C87.1834 96.0652 87.0106 96.2225 86.7802 96.3377C86.5497 96.4529 86.2728 96.5105 85.9493 96.5105C85.4796 96.5105 85.0941 96.3887 84.7927 96.1449C84.4914 95.8968 84.323 95.5467 84.2876 95.0947H84.8725C84.9035 95.3606 85.0121 95.5777 85.1982 95.7461C85.3843 95.9145 85.6325 95.9987 85.9427 95.9987C86.2528 95.9987 86.4877 95.9189 86.6472 95.7594C86.8112 95.5955 86.8932 95.385 86.8932 95.128C86.8932 94.7956 86.7824 94.5563 86.5608 94.4101C86.3393 94.2639 86.0047 94.1907 85.5571 94.1907H85.4043V93.6856H85.5638C85.9715 93.6811 86.2794 93.6147 86.4877 93.4862C86.696 93.3532 86.8001 93.1494 86.8001 92.8746C86.8001 92.6398 86.7226 92.4515 86.5675 92.3097C86.4168 92.1679 86.1997 92.097 85.9161 92.097C85.6413 92.097 85.4198 92.1679 85.2514 92.3097C85.083 92.4515 84.9833 92.642 84.9523 92.8813H84.3607Z" fill="#659EC7"/>
<path d="M88.2881 94.0246C88.2881 93.2624 88.4122 92.6686 88.6604 92.2432C88.9085 91.8134 89.3428 91.5984 89.9632 91.5984C90.5791 91.5984 91.0112 91.8134 91.2593 92.2432C91.5075 92.6686 91.6316 93.2624 91.6316 94.0246C91.6316 94.8 91.5075 95.4027 91.2593 95.8325C91.0112 96.2624 90.5791 96.4773 89.9632 96.4773C89.3428 96.4773 88.9085 96.2624 88.6604 95.8325C88.4122 95.4027 88.2881 94.8 88.2881 94.0246ZM91.0333 94.0246C91.0333 93.639 91.0067 93.3133 90.9536 93.0475C90.9048 92.7772 90.8007 92.56 90.6412 92.3961C90.4861 92.2321 90.2601 92.1501 89.9632 92.1501C89.6618 92.1501 89.4314 92.2321 89.2719 92.3961C89.1168 92.56 89.0127 92.7772 88.9595 93.0475C88.9107 93.3133 88.8864 93.639 88.8864 94.0246C88.8864 94.4234 88.9107 94.7579 88.9595 95.0283C89.0127 95.2986 89.1168 95.5157 89.2719 95.6797C89.4314 95.8436 89.6618 95.9256 89.9632 95.9256C90.2601 95.9256 90.4861 95.8436 90.6412 95.6797C90.8007 95.5157 90.9048 95.2986 90.9536 95.0283C91.0067 94.7579 91.0333 94.4234 91.0333 94.0246Z" fill="#659EC7"/>
<path d="M29.4422 49.4418H23.8143C23.2515 49.4418 22.791 48.9814 22.791 48.4186V41.2558C22.791 40.693 23.2515 40.2325 23.8143 40.2325H29.4422C30.005 40.2325 30.4654 40.693 30.4654 41.2558V48.4186C30.4654 48.9814 30.005 49.4418 29.4422 49.4418Z" stroke="#659FC8" stroke-width="0.545455" stroke-miterlimit="10" stroke-linecap="round" stroke-linejoin="round"/>
<path d="M27.6504 42.5349H28.6736" stroke="#659FC8" stroke-width="0.545455" stroke-miterlimit="10" stroke-linecap="round" stroke-linejoin="round"/>
<path d="M27.6504 44.0698H28.6736" stroke="#659FC8" stroke-width="0.545455" stroke-miterlimit="10" stroke-linecap="round" stroke-linejoin="round"/>
<path d="M24.5801 46.3721H28.6731" stroke="#659FC8" stroke-width="0.545455" stroke-miterlimit="10" stroke-linecap="round" stroke-linejoin="round"/>
<path d="M24.5801 47.907H28.6731" stroke="#659FC8" stroke-width="0.545455" stroke-miterlimit="10" stroke-linecap="round" stroke-linejoin="round"/>
<path d="M25.3477 42.1768V41.7675" stroke="#659FC8" stroke-width="0.545455" stroke-miterlimit="10" stroke-linecap="round" stroke-linejoin="round"/>
<path d="M25.3477 44.4791V44.8373" stroke="#659FC8" stroke-width="0.545455" stroke-miterlimit="10" stroke-linecap="round" stroke-linejoin="round"/>
<path d="M24.6824 44.172C24.7847 44.3255 24.9382 44.4278 25.1429 44.4278H25.3475H25.5522C25.8591 44.4278 26.115 44.172 26.115 43.865C26.115 43.6092 25.9615 43.4046 25.7057 43.3534L24.9894 43.1999C24.7336 43.1487 24.5801 42.9441 24.5801 42.6883C24.5801 42.3813 24.8359 42.1255 25.1429 42.1255H25.3475H25.5522C25.7568 42.1255 25.9103 42.2278 26.0126 42.3813" stroke="#659FC8" stroke-width="0.545455" stroke-miterlimit="10" stroke-linecap="round" stroke-linejoin="round"/>
<defs>
<filter id="filter0_d" x="2.27273" y="8" width="123.501" height="110.486" filterUnits="userSpaceOnUse" color-interpolation-filters="sRGB">
<feFlood flood-opacity="0" result="BackgroundImageFix"/>
<feColorMatrix in="SourceAlpha" type="matrix" values="0 0 0 0 0 0 0 0 0 0 0 0 0 0 0 0 0 0 127 0"/>
<feMorphology radius="10.9091" operator="erode" in="SourceAlpha" result="effect1_dropShadow"/>
<feOffset dy="16.3636"/>
<feGaussianBlur stdDeviation="9.81818"/>
<feColorMatrix type="matrix" values="0 0 0 0 0 0 0 0 0 0 0 0 0 0 0 0 0 0 0.15 0"/>
<feBlend mode="normal" in2="BackgroundImageFix" result="effect1_dropShadow"/>
<feBlend mode="normal" in="SourceGraphic" in2="effect1_dropShadow" result="shape"/>
</filter>
<filter id="filter1_d" x="17.165" y="30.8837" width="93.7167" height="61.2685" filterUnits="userSpaceOnUse" color-interpolation-filters="sRGB">
<feFlood flood-opacity="0" result="BackgroundImageFix"/>
<feColorMatrix in="SourceAlpha" type="matrix" values="0 0 0 0 0 0 0 0 0 0 0 0 0 0 0 0 0 0 127 0"/>
<feMorphology radius="3.27273" operator="erode" in="SourceAlpha" result="effect1_dropShadow"/>
<feOffset dy="4.36364"/>
<feGaussianBlur stdDeviation="2.18182"/>
<feColorMatrix type="matrix" values="0 0 0 0 0 0 0 0 0 0 0 0 0 0 0 0 0 0 0.14 0"/>
<feBlend mode="normal" in2="BackgroundImageFix" result="effect1_dropShadow"/>
<feBlend mode="normal" in="SourceGraphic" in2="effect1_dropShadow" result="shape"/>
</filter>
<filter id="filter2_d" x="13.8922" y="11.9577" width="13.4166" height="13.4166" filterUnits="userSpaceOnUse" color-interpolation-filters="sRGB">
<feFlood flood-opacity="0" result="BackgroundImageFix"/>
<feColorMatrix in="SourceAlpha" type="matrix" values="0 0 0 0 0 0 0 0 0 0 0 0 0 0 0 0 0 0 127 0"/>
<feOffset dy="2.18182"/>
<feGaussianBlur stdDeviation="2.18182"/>
<feColorMatrix type="matrix" values="0 0 0 0 0 0 0 0 0 0 0 0 0 0 0 0 0 0 0.1 0"/>
<feBlend mode="normal" in2="BackgroundImageFix" result="effect1_dropShadow"/>
<feBlend mode="normal" in="SourceGraphic" in2="effect1_dropShadow" result="shape"/>
</filter>
<filter id="filter3_d" x="20.9254" y="11.9577" width="13.4166" height="13.4166" filterUnits="userSpaceOnUse" color-interpolation-filters="sRGB">
<feFlood flood-opacity="0" result="BackgroundImageFix"/>
<feColorMatrix in="SourceAlpha" type="matrix" values="0 0 0 0 0 0 0 0 0 0 0 0 0 0 0 0 0 0 127 0"/>
<feOffset dy="2.18182"/>
<feGaussianBlur stdDeviation="2.18182"/>
<feColorMatrix type="matrix" values="0 0 0 0 0 0 0 0 0 0 0 0 0 0 0 0 0 0 0.1 0"/>
<feBlend mode="normal" in2="BackgroundImageFix" result="effect1_dropShadow"/>
<feBlend mode="normal" in="SourceGraphic" in2="effect1_dropShadow" result="shape"/>
</filter>
<filter id="filter4_d" x="27.9606" y="11.9577" width="13.4166" height="13.4166" filterUnits="userSpaceOnUse" color-interpolation-filters="sRGB">
<feFlood flood-opacity="0" result="BackgroundImageFix"/>
<feColorMatrix in="SourceAlpha" type="matrix" values="0 0 0 0 0 0 0 0 0 0 0 0 0 0 0 0 0 0 127 0"/>
<feOffset dy="2.18182"/>
<feGaussianBlur stdDeviation="2.18182"/>
<feColorMatrix type="matrix" values="0 0 0 0 0 0 0 0 0 0 0 0 0 0 0 0 0 0 0.1 0"/>
<feBlend mode="normal" in2="BackgroundImageFix" result="effect1_dropShadow"/>
<feBlend mode="normal" in="SourceGraphic" in2="effect1_dropShadow" result="shape"/>
</filter>
<filter id="filter5_d" x="66.3065" y="35.3489" width="57.3869" height="79.5603" filterUnits="userSpaceOnUse" color-interpolation-filters="sRGB">
<feFlood flood-opacity="0" result="BackgroundImageFix"/>
<feColorMatrix in="SourceAlpha" type="matrix" values="0 0 0 0 0 0 0 0 0 0 0 0 0 0 0 0 0 0 127 0"/>
<feMorphology radius="6.54545" operator="erode" in="SourceAlpha" result="effect1_dropShadow"/>
<feOffset dy="8.72727"/>
<feGaussianBlur stdDeviation="4.36364"/>
<feColorMatrix type="matrix" values="0 0 0 0 0.141176 0 0 0 0 0.196078 0 0 0 0 0.258824 0 0 0 0.1 0"/>
<feBlend mode="normal" in2="BackgroundImageFix" result="effect1_dropShadow"/>
<feBlend mode="normal" in="SourceGraphic" in2="effect1_dropShadow" result="shape"/>
</filter>
<linearGradient id="paint0_linear" x1="64.0233" y1="-12.6512" x2="64.0233" y2="100.093" gradientUnits="userSpaceOnUse">
<stop stop-color="#B1D8F4"/>
<stop offset="1" stop-color="#5B96C0"/>
</linearGradient>
</defs>
</svg>
