<svg width="20" height="19" viewBox="0 0 20 19" fill="none" xmlns="http://www.w3.org/2000/svg">
<path d="M18.1069 14.7459L4.92052 17.9779C4.10905 18.1799 3.50045 17.7759 3.29758 16.9679L0.0516976 3.83798C-0.15117 3.02998 0.254565 2.42399 1.06604 2.22199L9.99222 0C10.398 0 10.6008 7.67554e-07 11.0066 0.202L13.6438 1.61599L16.2811 3.02998C16.6868 3.23198 16.8897 3.43398 16.8897 3.83798L19.1213 13.1299C19.3241 13.7359 18.9184 14.5439 18.1069 14.7459ZM5.732 14.9479L16.2811 12.5239L14.4553 5.25197L12.4266 4.03998L10.398 3.02998L3.29758 4.44397L5.732 14.9479Z" fill="#96D7D6"/>
</svg>
