<svg width="21" height="22" viewBox="0 0 21 22" fill="none" xmlns="http://www.w3.org/2000/svg">
<path d="M3.03226 16.9983C2.86051 16.8904 2.79627 16.6114 2.73203 16.3324C2.53931 15.4955 2.96934 14.8114 3.80711 14.6223L10.896 12.8752L5.22833 9.31216C4.71308 8.98825 4.5846 8.43028 4.62787 7.98028C4.67114 7.53029 4.99366 7.01725 5.55217 6.89116L15.7129 4.45061C16.5507 4.26149 17.2377 4.69337 17.4304 5.53032C17.6232 6.36727 17.1931 7.05132 16.3553 7.24045L9.37392 8.81652L15.0416 12.3795C15.5569 12.7035 15.6854 13.2614 15.6421 13.7114C15.4913 14.3324 15.2763 14.6745 14.7178 14.8005L4.44952 17.4121C3.89101 17.5382 3.37576 17.2143 3.03226 16.9983Z" fill="#CACBE6"/>
</svg>
